<?xml version="1.0" encoding="UTF-8" standalone="no"?>
<!DOCTYPE svg PUBLIC "-//W3C//DTD SVG 1.1//EN"
 "http://www.w3.org/Graphics/SVG/1.1/DTD/svg11.dtd">
<!-- Generated by graphviz version 14.1.5 (20260411.2331)
 -->
<!-- Title: l2_topology_per_rail_spike Pages: 1 -->
<svg width="242pt" height="1324pt"
 viewBox="0.00 0.00 242.00 1324.00" xmlns="http://www.w3.org/2000/svg" xmlns:xlink="http://www.w3.org/1999/xlink">
<g id="graph0" class="graph" transform="scale(1 1) rotate(0) translate(4 1320)">
<title>l2_topology_per_rail_spike</title>
<polygon fill="white" stroke="none" points="-4,4 -4,-1320 238.25,-1320 238.25,4 -4,4"/>
<!-- role__ExternalRole_00 -->
<g id="node1" class="node">
<title>role__ExternalRole_00</title>
<polygon fill="#fff2cc" stroke="#7f6000" points="83.88,-36 1.88,-36 1.88,0 89.88,0 89.88,-30 83.88,-36"/>
<polyline fill="none" stroke="#7f6000" points="83.88,-36 83.88,-30"/>
<polyline fill="none" stroke="#7f6000" points="89.88,-30 83.88,-30"/>
<text xml:space="preserve" text-anchor="middle" x="45.88" y="-14.12" font-family="Helvetica,sans-Serif" font-size="10.00" fill="#7f6000">ExternalRole_00</text>
</g>
<!-- role__ExternalRole_01 -->
<g id="node2" class="node">
<title>role__ExternalRole_01</title>
<polygon fill="#fff2cc" stroke="#7f6000" points="83.88,-83 1.88,-83 1.88,-47 89.88,-47 89.88,-77 83.88,-83"/>
<polyline fill="none" stroke="#7f6000" points="83.88,-83 83.88,-77"/>
<polyline fill="none" stroke="#7f6000" points="89.88,-77 83.88,-77"/>
<text xml:space="preserve" text-anchor="middle" x="45.88" y="-61.12" font-family="Helvetica,sans-Serif" font-size="10.00" fill="#7f6000">ExternalRole_01</text>
</g>
<!-- role__ExternalRole_03 -->
<g id="node3" class="node">
<title>role__ExternalRole_03</title>
<polygon fill="#fff2cc" stroke="#7f6000" points="83.88,-130 1.88,-130 1.88,-94 89.88,-94 89.88,-124 83.88,-130"/>
<polyline fill="none" stroke="#7f6000" points="83.88,-130 83.88,-124"/>
<polyline fill="none" stroke="#7f6000" points="89.88,-124 83.88,-124"/>
<text xml:space="preserve" text-anchor="middle" x="45.88" y="-108.12" font-family="Helvetica,sans-Serif" font-size="10.00" fill="#7f6000">ExternalRole_03</text>
</g>
<!-- role__ExternalRole_04 -->
<g id="node4" class="node">
<title>role__ExternalRole_04</title>
<polygon fill="#fff2cc" stroke="#7f6000" points="83.88,-177 1.88,-177 1.88,-141 89.88,-141 89.88,-171 83.88,-177"/>
<polyline fill="none" stroke="#7f6000" points="83.88,-177 83.88,-171"/>
<polyline fill="none" stroke="#7f6000" points="89.88,-171 83.88,-171"/>
<text xml:space="preserve" text-anchor="middle" x="45.88" y="-155.12" font-family="Helvetica,sans-Serif" font-size="10.00" fill="#7f6000">ExternalRole_04</text>
</g>
<!-- role__ExternalRole_05 -->
<g id="node5" class="node">
<title>role__ExternalRole_05</title>
<polygon fill="#fff2cc" stroke="#7f6000" points="83.88,-224 1.88,-224 1.88,-188 89.88,-188 89.88,-218 83.88,-224"/>
<polyline fill="none" stroke="#7f6000" points="83.88,-224 83.88,-218"/>
<polyline fill="none" stroke="#7f6000" points="89.88,-218 83.88,-218"/>
<text xml:space="preserve" text-anchor="middle" x="45.88" y="-202.12" font-family="Helvetica,sans-Serif" font-size="10.00" fill="#7f6000">ExternalRole_05</text>
</g>
<!-- role__ExternalRole_06 -->
<g id="node6" class="node">
<title>role__ExternalRole_06</title>
<polygon fill="#fff2cc" stroke="#7f6000" points="83.88,-271 1.88,-271 1.88,-235 89.88,-235 89.88,-265 83.88,-271"/>
<polyline fill="none" stroke="#7f6000" points="83.88,-271 83.88,-265"/>
<polyline fill="none" stroke="#7f6000" points="89.88,-265 83.88,-265"/>
<text xml:space="preserve" text-anchor="middle" x="45.88" y="-249.12" font-family="Helvetica,sans-Serif" font-size="10.00" fill="#7f6000">ExternalRole_06</text>
</g>
<!-- role__ExternalRole_07 -->
<g id="node7" class="node">
<title>role__ExternalRole_07</title>
<polygon fill="#fff2cc" stroke="#7f6000" points="83.88,-318 1.88,-318 1.88,-282 89.88,-282 89.88,-312 83.88,-318"/>
<polyline fill="none" stroke="#7f6000" points="83.88,-318 83.88,-312"/>
<polyline fill="none" stroke="#7f6000" points="89.88,-312 83.88,-312"/>
<text xml:space="preserve" text-anchor="middle" x="45.88" y="-296.12" font-family="Helvetica,sans-Serif" font-size="10.00" fill="#7f6000">ExternalRole_07</text>
</g>
<!-- role__ExternalRole_08 -->
<g id="node8" class="node">
<title>role__ExternalRole_08</title>
<polygon fill="#fff2cc" stroke="#7f6000" points="83.88,-365 1.88,-365 1.88,-329 89.88,-329 89.88,-359 83.88,-365"/>
<polyline fill="none" stroke="#7f6000" points="83.88,-365 83.88,-359"/>
<polyline fill="none" stroke="#7f6000" points="89.88,-359 83.88,-359"/>
<text xml:space="preserve" text-anchor="middle" x="45.88" y="-343.12" font-family="Helvetica,sans-Serif" font-size="10.00" fill="#7f6000">ExternalRole_08</text>
</g>
<!-- role__ExternalRole_09 -->
<g id="node9" class="node">
<title>role__ExternalRole_09</title>
<polygon fill="#fff2cc" stroke="#7f6000" points="83.88,-412 1.88,-412 1.88,-376 89.88,-376 89.88,-406 83.88,-412"/>
<polyline fill="none" stroke="#7f6000" points="83.88,-412 83.88,-406"/>
<polyline fill="none" stroke="#7f6000" points="89.88,-406 83.88,-406"/>
<text xml:space="preserve" text-anchor="middle" x="45.88" y="-390.12" font-family="Helvetica,sans-Serif" font-size="10.00" fill="#7f6000">ExternalRole_09</text>
</g>
<!-- role__ExternalRole_10 -->
<g id="node10" class="node">
<title>role__ExternalRole_10</title>
<polygon fill="#fff2cc" stroke="#7f6000" points="83.88,-459 1.88,-459 1.88,-423 89.88,-423 89.88,-453 83.88,-459"/>
<polyline fill="none" stroke="#7f6000" points="83.88,-459 83.88,-453"/>
<polyline fill="none" stroke="#7f6000" points="89.88,-453 83.88,-453"/>
<text xml:space="preserve" text-anchor="middle" x="45.88" y="-437.12" font-family="Helvetica,sans-Serif" font-size="10.00" fill="#7f6000">ExternalRole_10</text>
</g>
<!-- role__ExternalRole_11 -->
<g id="node11" class="node">
<title>role__ExternalRole_11</title>
<polygon fill="#fff2cc" stroke="#7f6000" points="83.88,-506 1.88,-506 1.88,-470 89.88,-470 89.88,-500 83.88,-506"/>
<polyline fill="none" stroke="#7f6000" points="83.88,-506 83.88,-500"/>
<polyline fill="none" stroke="#7f6000" points="89.88,-500 83.88,-500"/>
<text xml:space="preserve" text-anchor="middle" x="45.88" y="-484.12" font-family="Helvetica,sans-Serif" font-size="10.00" fill="#7f6000">ExternalRole_11</text>
</g>
<!-- role__ExternalRole_12 -->
<g id="node12" class="node">
<title>role__ExternalRole_12</title>
<polygon fill="#fff2cc" stroke="#7f6000" points="83.88,-553 1.88,-553 1.88,-517 89.88,-517 89.88,-547 83.88,-553"/>
<polyline fill="none" stroke="#7f6000" points="83.88,-553 83.88,-547"/>
<polyline fill="none" stroke="#7f6000" points="89.88,-547 83.88,-547"/>
<text xml:space="preserve" text-anchor="middle" x="45.88" y="-531.12" font-family="Helvetica,sans-Serif" font-size="10.00" fill="#7f6000">ExternalRole_12</text>
</g>
<!-- role__ExternalRole_13 -->
<g id="node13" class="node">
<title>role__ExternalRole_13</title>
<polygon fill="#fff2cc" stroke="#7f6000" points="83.88,-600 1.88,-600 1.88,-564 89.88,-564 89.88,-594 83.88,-600"/>
<polyline fill="none" stroke="#7f6000" points="83.88,-600 83.88,-594"/>
<polyline fill="none" stroke="#7f6000" points="89.88,-594 83.88,-594"/>
<text xml:space="preserve" text-anchor="middle" x="45.88" y="-578.12" font-family="Helvetica,sans-Serif" font-size="10.00" fill="#7f6000">ExternalRole_13</text>
</g>
<!-- role__ExternalRole_14 -->
<g id="node14" class="node">
<title>role__ExternalRole_14</title>
<polygon fill="#fff2cc" stroke="#7f6000" points="83.88,-647 1.88,-647 1.88,-611 89.88,-611 89.88,-641 83.88,-647"/>
<polyline fill="none" stroke="#7f6000" points="83.88,-647 83.88,-641"/>
<polyline fill="none" stroke="#7f6000" points="89.88,-641 83.88,-641"/>
<text xml:space="preserve" text-anchor="middle" x="45.88" y="-625.12" font-family="Helvetica,sans-Serif" font-size="10.00" fill="#7f6000">ExternalRole_14</text>
</g>
<!-- role__ExternalRole_15 -->
<g id="node15" class="node">
<title>role__ExternalRole_15</title>
<polygon fill="#fff2cc" stroke="#7f6000" points="83.88,-694 1.88,-694 1.88,-658 89.88,-658 89.88,-688 83.88,-694"/>
<polyline fill="none" stroke="#7f6000" points="83.88,-694 83.88,-688"/>
<polyline fill="none" stroke="#7f6000" points="89.88,-688 83.88,-688"/>
<text xml:space="preserve" text-anchor="middle" x="45.88" y="-672.12" font-family="Helvetica,sans-Serif" font-size="10.00" fill="#7f6000">ExternalRole_15</text>
</g>
<!-- role__ExternalRole_16 -->
<g id="node16" class="node">
<title>role__ExternalRole_16</title>
<polygon fill="#fff2cc" stroke="#7f6000" points="83.88,-741 1.88,-741 1.88,-705 89.88,-705 89.88,-735 83.88,-741"/>
<polyline fill="none" stroke="#7f6000" points="83.88,-741 83.88,-735"/>
<polyline fill="none" stroke="#7f6000" points="89.88,-735 83.88,-735"/>
<text xml:space="preserve" text-anchor="middle" x="45.88" y="-719.12" font-family="Helvetica,sans-Serif" font-size="10.00" fill="#7f6000">ExternalRole_16</text>
</g>
<!-- role__ExternalRole_17 -->
<g id="node17" class="node">
<title>role__ExternalRole_17</title>
<polygon fill="#fff2cc" stroke="#7f6000" points="83.88,-788 1.88,-788 1.88,-752 89.88,-752 89.88,-782 83.88,-788"/>
<polyline fill="none" stroke="#7f6000" points="83.88,-788 83.88,-782"/>
<polyline fill="none" stroke="#7f6000" points="89.88,-782 83.88,-782"/>
<text xml:space="preserve" text-anchor="middle" x="45.88" y="-766.12" font-family="Helvetica,sans-Serif" font-size="10.00" fill="#7f6000">ExternalRole_17</text>
</g>
<!-- role__ExternalRole_18 -->
<g id="node18" class="node">
<title>role__ExternalRole_18</title>
<polygon fill="#fff2cc" stroke="#7f6000" points="83.88,-835 1.88,-835 1.88,-799 89.88,-799 89.88,-829 83.88,-835"/>
<polyline fill="none" stroke="#7f6000" points="83.88,-835 83.88,-829"/>
<polyline fill="none" stroke="#7f6000" points="89.88,-829 83.88,-829"/>
<text xml:space="preserve" text-anchor="middle" x="45.88" y="-813.12" font-family="Helvetica,sans-Serif" font-size="10.00" fill="#7f6000">ExternalRole_18</text>
</g>
<!-- role__ExternalRole_19 -->
<g id="node19" class="node">
<title>role__ExternalRole_19</title>
<polygon fill="#fff2cc" stroke="#7f6000" points="83.88,-882 1.88,-882 1.88,-846 89.88,-846 89.88,-876 83.88,-882"/>
<polyline fill="none" stroke="#7f6000" points="83.88,-882 83.88,-876"/>
<polyline fill="none" stroke="#7f6000" points="89.88,-876 83.88,-876"/>
<text xml:space="preserve" text-anchor="middle" x="45.88" y="-860.12" font-family="Helvetica,sans-Serif" font-size="10.00" fill="#7f6000">ExternalRole_19</text>
</g>
<!-- role__InternalRole_00 -->
<g id="node20" class="node">
<title>role__InternalRole_00</title>
<path fill="#dbe9f6" stroke="#1f4e79" d="M88,-925.73C88,-927.53 69.12,-929 45.88,-929 22.63,-929 3.75,-927.53 3.75,-925.73 3.75,-925.73 3.75,-896.27 3.75,-896.27 3.75,-894.47 22.63,-893 45.88,-893 69.12,-893 88,-894.47 88,-896.27 88,-896.27 88,-925.73 88,-925.73"/>
<path fill="none" stroke="#1f4e79" d="M88,-925.73C88,-923.92 69.12,-922.45 45.88,-922.45 22.63,-922.45 3.75,-923.92 3.75,-925.73"/>
<text xml:space="preserve" text-anchor="middle" x="45.88" y="-907.12" font-family="Helvetica,sans-Serif" font-size="10.00" fill="#1f4e79">InternalRole_00</text>
</g>
<!-- role__InternalRole_01 -->
<g id="node21" class="node">
<title>role__InternalRole_01</title>
<path fill="#dbe9f6" stroke="#1f4e79" d="M88,-972.73C88,-974.53 69.12,-976 45.88,-976 22.63,-976 3.75,-974.53 3.75,-972.73 3.75,-972.73 3.75,-943.27 3.75,-943.27 3.75,-941.47 22.63,-940 45.88,-940 69.12,-940 88,-941.47 88,-943.27 88,-943.27 88,-972.73 88,-972.73"/>
<path fill="none" stroke="#1f4e79" d="M88,-972.73C88,-970.92 69.12,-969.45 45.88,-969.45 22.63,-969.45 3.75,-970.92 3.75,-972.73"/>
<text xml:space="preserve" text-anchor="middle" x="45.88" y="-954.12" font-family="Helvetica,sans-Serif" font-size="10.00" fill="#1f4e79">InternalRole_01</text>
</g>
<!-- role__InternalRole_02 -->
<g id="node22" class="node">
<title>role__InternalRole_02</title>
<path fill="#dbe9f6" stroke="#1f4e79" d="M234.25,-1054.73C234.25,-1056.53 215.37,-1058 192.12,-1058 168.88,-1058 150,-1056.53 150,-1054.73 150,-1054.73 150,-1025.27 150,-1025.27 150,-1023.47 168.88,-1022 192.12,-1022 215.37,-1022 234.25,-1023.47 234.25,-1025.27 234.25,-1025.27 234.25,-1054.73 234.25,-1054.73"/>
<path fill="none" stroke="#1f4e79" d="M234.25,-1054.73C234.25,-1052.92 215.37,-1051.45 192.12,-1051.45 168.88,-1051.45 150,-1052.92 150,-1054.73"/>
<text xml:space="preserve" text-anchor="middle" x="192.12" y="-1036.12" font-family="Helvetica,sans-Serif" font-size="10.00" fill="#1f4e79">InternalRole_02</text>
</g>
<!-- role__InternalRole_03 -->
<g id="node23" class="node">
<title>role__InternalRole_03</title>
<path fill="#dbe9f6" stroke="#1f4e79" d="M234.25,-1124.73C234.25,-1126.53 215.37,-1128 192.12,-1128 168.88,-1128 150,-1126.53 150,-1124.73 150,-1124.73 150,-1095.27 150,-1095.27 150,-1093.47 168.88,-1092 192.12,-1092 215.37,-1092 234.25,-1093.47 234.25,-1095.27 234.25,-1095.27 234.25,-1124.73 234.25,-1124.73"/>
<path fill="none" stroke="#1f4e79" d="M234.25,-1124.73C234.25,-1122.92 215.37,-1121.45 192.12,-1121.45 168.88,-1121.45 150,-1122.92 150,-1124.73"/>
<text xml:space="preserve" text-anchor="middle" x="192.12" y="-1106.12" font-family="Helvetica,sans-Serif" font-size="10.00" fill="#1f4e79">InternalRole_03</text>
</g>
<!-- role__InternalRole_04 -->
<g id="node24" class="node">
<title>role__InternalRole_04</title>
<path fill="#dbe9f6" stroke="#1f4e79" d="M88,-1171.73C88,-1173.53 69.12,-1175 45.88,-1175 22.63,-1175 3.75,-1173.53 3.75,-1171.73 3.75,-1171.73 3.75,-1142.27 3.75,-1142.27 3.75,-1140.47 22.63,-1139 45.88,-1139 69.12,-1139 88,-1140.47 88,-1142.27 88,-1142.27 88,-1171.73 88,-1171.73"/>
<path fill="none" stroke="#1f4e79" d="M88,-1171.73C88,-1169.92 69.12,-1168.45 45.88,-1168.45 22.63,-1168.45 3.75,-1169.92 3.75,-1171.73"/>
<text xml:space="preserve" text-anchor="middle" x="45.88" y="-1153.12" font-family="Helvetica,sans-Serif" font-size="10.00" fill="#1f4e79">InternalRole_04</text>
</g>
<!-- role__InternalRole_05 -->
<g id="node25" class="node">
<title>role__InternalRole_05</title>
<path fill="#dbe9f6" stroke="#1f4e79" d="M234.25,-1218.73C234.25,-1220.53 215.37,-1222 192.12,-1222 168.88,-1222 150,-1220.53 150,-1218.73 150,-1218.73 150,-1189.27 150,-1189.27 150,-1187.47 168.88,-1186 192.12,-1186 215.37,-1186 234.25,-1187.47 234.25,-1189.27 234.25,-1189.27 234.25,-1218.73 234.25,-1218.73"/>
<path fill="none" stroke="#1f4e79" d="M234.25,-1218.73C234.25,-1216.92 215.37,-1215.45 192.12,-1215.45 168.88,-1215.45 150,-1216.92 150,-1218.73"/>
<text xml:space="preserve" text-anchor="middle" x="192.12" y="-1200.12" font-family="Helvetica,sans-Serif" font-size="10.00" fill="#1f4e79">InternalRole_05</text>
</g>
<!-- role__InternalRole_06 -->
<g id="node26" class="node">
<title>role__InternalRole_06</title>
<path fill="#dbe9f6" stroke="#1f4e79" d="M88,-1265.73C88,-1267.53 69.12,-1269 45.88,-1269 22.63,-1269 3.75,-1267.53 3.75,-1265.73 3.75,-1265.73 3.75,-1236.27 3.75,-1236.27 3.75,-1234.47 22.63,-1233 45.88,-1233 69.12,-1233 88,-1234.47 88,-1236.27 88,-1236.27 88,-1265.73 88,-1265.73"/>
<path fill="none" stroke="#1f4e79" d="M88,-1265.73C88,-1263.92 69.12,-1262.45 45.88,-1262.45 22.63,-1262.45 3.75,-1263.92 3.75,-1265.73"/>
<text xml:space="preserve" text-anchor="middle" x="45.88" y="-1247.12" font-family="Helvetica,sans-Serif" font-size="10.00" fill="#1f4e79">InternalRole_06</text>
</g>
<!-- role__InternalRole_07 -->
<g id="node27" class="node">
<title>role__InternalRole_07</title>
<path fill="#dbe9f6" stroke="#1f4e79" d="M88,-1312.73C88,-1314.53 69.12,-1316 45.88,-1316 22.63,-1316 3.75,-1314.53 3.75,-1312.73 3.75,-1312.73 3.75,-1283.27 3.75,-1283.27 3.75,-1281.47 22.63,-1280 45.88,-1280 69.12,-1280 88,-1281.47 88,-1283.27 88,-1283.27 88,-1312.73 88,-1312.73"/>
<path fill="none" stroke="#1f4e79" d="M88,-1312.73C88,-1310.92 69.12,-1309.45 45.88,-1309.45 22.63,-1309.45 3.75,-1310.92 3.75,-1312.73"/>
<text xml:space="preserve" text-anchor="middle" x="45.88" y="-1294.12" font-family="Helvetica,sans-Serif" font-size="10.00" fill="#1f4e79">InternalRole_07</text>
</g>
<!-- role__TemplateRole_00 -->
<g id="node28" class="node">
<title>role__TemplateRole_00</title>
<polygon fill="#e8f0ff" stroke="#1f4e79" points="91.75,-1222 88.75,-1226 67.75,-1226 64.75,-1222 0,-1222 0,-1186 91.75,-1186 91.75,-1222"/>
<text xml:space="preserve" text-anchor="middle" x="45.88" y="-1200.12" font-family="Helvetica,sans-Serif" font-size="10.00" fill="#1f4e79">TemplateRole_00</text>
</g>
<!-- role__TemplateRole_00&#45;&gt;role__InternalRole_05 -->
<g id="edge1" class="edge">
<title>role__TemplateRole_00&#45;&gt;role__InternalRole_05</title>
<path fill="none" stroke="#888888" stroke-dasharray="5,2" d="M92.12,-1204C106.87,-1204 123.37,-1204 138.6,-1204"/>
<polygon fill="none" stroke="#888888" points="138.44,-1207.5 148.44,-1204 138.44,-1200.5 138.44,-1207.5"/>
<text xml:space="preserve" text-anchor="middle" x="120.88" y="-1205.2" font-family="Helvetica,sans-Serif" font-size="9.00" fill="#888888">controls</text>
</g>
<!-- role__TemplateRole_01 -->
<g id="node29" class="node">
<title>role__TemplateRole_01</title>
<polygon fill="#e8f0ff" stroke="#1f4e79" points="91.75,-1128 88.75,-1132 67.75,-1132 64.75,-1128 0,-1128 0,-1092 91.75,-1092 91.75,-1128"/>
<text xml:space="preserve" text-anchor="middle" x="45.88" y="-1106.12" font-family="Helvetica,sans-Serif" font-size="10.00" fill="#1f4e79">TemplateRole_01</text>
</g>
<!-- role__TemplateRole_01&#45;&gt;role__InternalRole_03 -->
<g id="edge2" class="edge">
<title>role__TemplateRole_01&#45;&gt;role__InternalRole_03</title>
<path fill="none" stroke="#888888" stroke-dasharray="5,2" d="M92.12,-1110C106.87,-1110 123.37,-1110 138.6,-1110"/>
<polygon fill="none" stroke="#888888" points="138.44,-1113.5 148.44,-1110 138.44,-1106.5 138.44,-1113.5"/>
<text xml:space="preserve" text-anchor="middle" x="120.88" y="-1111.2" font-family="Helvetica,sans-Serif" font-size="9.00" fill="#888888">controls</text>
</g>
<!-- role__TemplateRole_02 -->
<g id="node30" class="node">
<title>role__TemplateRole_02</title>
<polygon fill="#e8f0ff" stroke="#1f4e79" points="91.75,-1070 88.75,-1074 67.75,-1074 64.75,-1070 0,-1070 0,-1034 91.75,-1034 91.75,-1070"/>
<text xml:space="preserve" text-anchor="middle" x="45.88" y="-1048.12" font-family="Helvetica,sans-Serif" font-size="10.00" fill="#1f4e79">TemplateRole_02</text>
</g>
<!-- role__TemplateRole_02&#45;&gt;role__InternalRole_02 -->
<g id="edge3" class="edge">
<title>role__TemplateRole_02&#45;&gt;role__InternalRole_02</title>
<path fill="none" stroke="#888888" stroke-dasharray="5,2" d="M92.12,-1048.24C106.87,-1047.01 123.37,-1045.64 138.6,-1044.37"/>
<polygon fill="none" stroke="#888888" points="138.77,-1047.87 148.45,-1043.55 138.19,-1040.89 138.77,-1047.87"/>
<text xml:space="preserve" text-anchor="middle" x="120.88" y="-1048.27" font-family="Helvetica,sans-Serif" font-size="9.00" fill="#888888">controls</text>
</g>
<!-- role__TemplateRole_03 -->
<g id="node31" class="node">
<title>role__TemplateRole_03</title>
<polygon fill="#e8f0ff" stroke="#1f4e79" points="91.75,-1023 88.75,-1027 67.75,-1027 64.75,-1023 0,-1023 0,-987 91.75,-987 91.75,-1023"/>
<text xml:space="preserve" text-anchor="middle" x="45.88" y="-1001.12" font-family="Helvetica,sans-Serif" font-size="10.00" fill="#1f4e79">TemplateRole_03</text>
</g>
<!-- role__TemplateRole_03&#45;&gt;role__InternalRole_02 -->
<g id="edge4" class="edge">
<title>role__TemplateRole_03&#45;&gt;role__InternalRole_02</title>
<path fill="none" stroke="#888888" stroke-dasharray="5,2" d="M92.12,-1015.98C107.01,-1019.59 123.69,-1023.64 139.05,-1027.37"/>
<polygon fill="none" stroke="#888888" points="137.94,-1030.7 148.49,-1029.65 139.59,-1023.9 137.94,-1030.7"/>
<text xml:space="preserve" text-anchor="middle" x="120.88" y="-1027.86" font-family="Helvetica,sans-Serif" font-size="9.00" fill="#888888">controls</text>
</g>
</g>
</svg>
