<?xml version="1.0" encoding="UTF-8" standalone="no"?>
<!DOCTYPE svg PUBLIC "-//W3C//DTD SVG 1.1//EN"
 "http://www.w3.org/Graphics/SVG/1.1/DTD/svg11.dtd">
<!-- Generated by graphviz version 14.1.5 (20260411.2331)
 -->
<!-- Title: l2_topology_per_rail_spike Pages: 1 -->
<svg width="1682pt" height="502pt"
 viewBox="0.00 0.00 1682.00 502.00" xmlns="http://www.w3.org/2000/svg" xmlns:xlink="http://www.w3.org/1999/xlink">
<g id="graph0" class="graph" transform="scale(1 1) rotate(0) translate(4 498.48)">
<title>l2_topology_per_rail_spike</title>
<polygon fill="white" stroke="none" points="-4,4 -4,-498.48 1677.9,-498.48 1677.9,4 -4,4"/>
<!-- role__ACHOrigSettlement -->
<g id="node1" class="node">
<title>role__ACHOrigSettlement</title>
<path fill="#dbe9f6" stroke="#1f4e79" d="M110.65,-46.48C110.65,-46.48 31.65,-46.48 31.65,-46.48 25.65,-46.48 19.65,-40.48 19.65,-34.48 19.65,-34.48 19.65,-22.48 19.65,-22.48 19.65,-16.48 25.65,-10.48 31.65,-10.48 31.65,-10.48 110.65,-10.48 110.65,-10.48 116.65,-10.48 122.65,-16.48 122.65,-22.48 122.65,-22.48 122.65,-34.48 122.65,-34.48 122.65,-40.48 116.65,-46.48 110.65,-46.48"/>
<text xml:space="preserve" text-anchor="middle" x="71.15" y="-24.6" font-family="Helvetica,sans-Serif" font-size="10.00" fill="#1f4e79">ACHOrigSettlement</text>
</g>
<!-- rail__ACHOriginationDailySweep -->
<g id="node22" class="node">
<title>rail__ACHOriginationDailySweep</title>
<ellipse fill="#f5f5f5" stroke="#666666" cx="259.98" cy="-28.48" rx="80.91" ry="18"/>
<text xml:space="preserve" text-anchor="middle" x="259.98" y="-24.6" font-family="Helvetica,sans-Serif" font-size="10.00" fill="#666666">ACHOriginationDailySweep</text>
</g>
<!-- role__ACHOrigSettlement&#45;&gt;rail__ACHOriginationDailySweep -->
<g id="edge12" class="edge">
<title>role__ACHOrigSettlement&#45;&gt;rail__ACHOriginationDailySweep</title>
<path fill="none" stroke="#1f4e79" d="M122.71,-28.48C140,-28.48 159.79,-28.48 178.83,-28.48"/>
</g>
<!-- role__CashDueFRB -->
<g id="node2" class="node">
<title>role__CashDueFRB</title>
<path fill="#dbe9f6" stroke="#1f4e79" d="M461.8,-46.48C461.8,-46.48 408.3,-46.48 408.3,-46.48 402.3,-46.48 396.3,-40.48 396.3,-34.48 396.3,-34.48 396.3,-22.48 396.3,-22.48 396.3,-16.48 402.3,-10.48 408.3,-10.48 408.3,-10.48 461.8,-10.48 461.8,-10.48 467.8,-10.48 473.8,-16.48 473.8,-22.48 473.8,-22.48 473.8,-34.48 473.8,-34.48 473.8,-40.48 467.8,-46.48 461.8,-46.48"/>
<text xml:space="preserve" text-anchor="middle" x="435.05" y="-24.6" font-family="Helvetica,sans-Serif" font-size="10.00" fill="#1f4e79">CashDueFRB</text>
</g>
<!-- role__ConcentrationMaster -->
<g id="node3" class="node">
<title>role__ConcentrationMaster</title>
<path fill="#dbe9f6" stroke="#1f4e79" d="M624.7,-118.48C624.7,-118.48 541.95,-118.48 541.95,-118.48 535.95,-118.48 529.95,-112.48 529.95,-106.48 529.95,-106.48 529.95,-94.48 529.95,-94.48 529.95,-88.48 535.95,-82.48 541.95,-82.48 541.95,-82.48 624.7,-82.48 624.7,-82.48 630.7,-82.48 636.7,-88.48 636.7,-94.48 636.7,-94.48 636.7,-106.48 636.7,-106.48 636.7,-112.48 630.7,-118.48 624.7,-118.48"/>
<text xml:space="preserve" text-anchor="middle" x="583.32" y="-96.6" font-family="Helvetica,sans-Serif" font-size="10.00" fill="#1f4e79">ConcentrationMaster</text>
</g>
<!-- rail__ConcentrationToFRBSweep -->
<g id="node21" class="node">
<title>rail__ConcentrationToFRBSweep</title>
<ellipse fill="#f5f5f5" stroke="#666666" cx="763.99" cy="-100.48" rx="81.36" ry="18"/>
<text xml:space="preserve" text-anchor="middle" x="763.99" y="-96.6" font-family="Helvetica,sans-Serif" font-size="10.00" fill="#666666">ConcentrationToFRBSweep</text>
</g>
<!-- role__ConcentrationMaster&#45;&gt;rail__ConcentrationToFRBSweep -->
<g id="edge10" class="edge">
<title>role__ConcentrationMaster&#45;&gt;rail__ConcentrationToFRBSweep</title>
<path fill="none" stroke="#1f4e79" d="M636.96,-100.48C651.17,-100.48 666.87,-100.48 682.23,-100.48"/>
</g>
<!-- role__CustomerDDA -->
<g id="node4" class="node">
<title>role__CustomerDDA</title>
<polygon fill="#e8f0ff" stroke="#1f4e79" points="1379.94,-215.48 1376.94,-219.48 1355.94,-219.48 1352.94,-215.48 1299.44,-215.48 1299.44,-179.48 1379.94,-179.48 1379.94,-215.48"/>
<text xml:space="preserve" text-anchor="middle" x="1339.69" y="-193.6" font-family="Helvetica,sans-Serif" font-size="10.00" fill="#1f4e79">CustomerDDA</text>
</g>
<!-- role__DDAControl -->
<g id="node5" class="node">
<title>role__DDAControl</title>
<path fill="#dbe9f6" stroke="#1f4e79" d="M1588.99,-215.48C1588.99,-215.48 1543.74,-215.48 1543.74,-215.48 1537.74,-215.48 1531.74,-209.48 1531.74,-203.48 1531.74,-203.48 1531.74,-191.48 1531.74,-191.48 1531.74,-185.48 1537.74,-179.48 1543.74,-179.48 1543.74,-179.48 1588.99,-179.48 1588.99,-179.48 1594.99,-179.48 1600.99,-185.48 1600.99,-191.48 1600.99,-191.48 1600.99,-203.48 1600.99,-203.48 1600.99,-209.48 1594.99,-215.48 1588.99,-215.48"/>
<text xml:space="preserve" text-anchor="middle" x="1566.36" y="-193.6" font-family="Helvetica,sans-Serif" font-size="10.00" fill="#1f4e79">DDAControl</text>
</g>
<!-- role__CustomerDDA&#45;&gt;role__DDAControl -->
<g id="edge43" class="edge">
<title>role__CustomerDDA&#45;&gt;role__DDAControl</title>
<path fill="none" stroke="#888888" stroke-dasharray="5,2" d="M1380.34,-197.48C1419.41,-197.48 1479.03,-197.48 1519.97,-197.48"/>
<polygon fill="none" stroke="#888888" points="1519.74,-200.98 1529.74,-197.48 1519.74,-193.98 1519.74,-200.98"/>
<text xml:space="preserve" text-anchor="middle" x="1429.32" y="-208.43" font-family="Helvetica,sans-Serif" font-size="9.00" fill="#888888">controls</text>
<text xml:space="preserve" text-anchor="middle" x="1429.32" y="-198.68" font-family="Helvetica,sans-Serif" font-size="9.00" fill="#888888">($ caps)</text>
</g>
<!-- rail__InternalTransferDebit -->
<g id="node16" class="node">
<title>rail__InternalTransferDebit</title>
<ellipse fill="#f5f5f5" stroke="#666666" cx="1566.36" cy="-150.48" rx="63.61" ry="18"/>
<text xml:space="preserve" text-anchor="middle" x="1566.36" y="-146.6" font-family="Helvetica,sans-Serif" font-size="10.00" fill="#666666">InternalTransferDebit</text>
</g>
<!-- role__CustomerDDA&#45;&gt;rail__InternalTransferDebit -->
<g id="edge3" class="edge">
<title>role__CustomerDDA&#45;&gt;rail__InternalTransferDebit</title>
<path fill="none" stroke="#7f6000" d="M1380.34,-189.18C1417.63,-181.38 1473.64,-169.66 1514.27,-161.17"/>
</g>
<!-- rail__CustomerFeeAccrual -->
<g id="node19" class="node">
<title>rail__CustomerFeeAccrual</title>
<ellipse fill="#f5f5f5" stroke="#666666" cx="1566.36" cy="-291.48" rx="64.05" ry="18"/>
<text xml:space="preserve" text-anchor="middle" x="1566.36" y="-287.6" font-family="Helvetica,sans-Serif" font-size="10.00" fill="#666666">CustomerFeeAccrual</text>
</g>
<!-- role__CustomerDDA&#45;&gt;rail__CustomerFeeAccrual -->
<g id="edge6" class="edge">
<title>role__CustomerDDA&#45;&gt;rail__CustomerFeeAccrual</title>
<path fill="none" stroke="#7f6000" d="M1371.73,-215.87C1406.73,-236.61 1458.82,-267.48 1458.82,-267.48 1458.82,-267.48 1487.79,-274 1515.52,-280.25"/>
</g>
<!-- rail__CustomerInboundACHReturnNSF -->
<g id="node25" class="node">
<title>rail__CustomerInboundACHReturnNSF</title>
<ellipse fill="#f5f5f5" stroke="#666666" cx="1566.36" cy="-244.48" rx="97.33" ry="18"/>
<text xml:space="preserve" text-anchor="middle" x="1566.36" y="-240.6" font-family="Helvetica,sans-Serif" font-size="10.00" fill="#666666">CustomerInboundACHReturnNSF</text>
</g>
<!-- role__CustomerDDA&#45;&gt;rail__CustomerInboundACHReturnNSF -->
<g id="edge17" class="edge">
<title>role__CustomerDDA&#45;&gt;rail__CustomerInboundACHReturnNSF</title>
<path fill="none" stroke="#1f4e79" d="M1380.13,-208.96C1396.97,-213.86 1412.82,-218.48 1412.82,-218.48 1412.82,-218.48 1453.99,-225.49 1493.56,-232.24"/>
</g>
<!-- rail__CustomerInboundACHReturnStopPay -->
<g id="node26" class="node">
<title>rail__CustomerInboundACHReturnStopPay</title>
<ellipse fill="#f5f5f5" stroke="#666666" cx="1566.36" cy="-103.48" rx="107.54" ry="18"/>
<text xml:space="preserve" text-anchor="middle" x="1566.36" y="-99.6" font-family="Helvetica,sans-Serif" font-size="10.00" fill="#666666">CustomerInboundACHReturnStopPay</text>
</g>
<!-- role__CustomerDDA&#45;&gt;rail__CustomerInboundACHReturnStopPay -->
<g id="edge19" class="edge">
<title>role__CustomerDDA&#45;&gt;rail__CustomerInboundACHReturnStopPay</title>
<path fill="none" stroke="#1f4e79" d="M1371.42,-179.01C1406.42,-157.97 1458.82,-126.48 1458.82,-126.48 1458.82,-126.48 1477.26,-122.5 1498.79,-117.85"/>
</g>
<!-- rail__bundle_1 -->
<g id="node41" class="node">
<title>rail__bundle_1</title>
<ellipse fill="#e8e8e8" stroke="#1f4e79" stroke-width="1.5" cx="1566.36" cy="-37.48" rx="92.45" ry="37.48"/>
<text xml:space="preserve" text-anchor="middle" x="1566.36" y="-50.48" font-family="Helvetica,sans-Serif" font-size="10.00" fill="#666666">3 rails:</text>
<text xml:space="preserve" text-anchor="middle" x="1566.36" y="-39.23" font-family="Helvetica,sans-Serif" font-size="10.00" fill="#666666">CustomerCashWithdrawal</text>
<text xml:space="preserve" text-anchor="middle" x="1566.36" y="-27.98" font-family="Helvetica,sans-Serif" font-size="10.00" fill="#666666">CustomerOutboundACH</text>
<text xml:space="preserve" text-anchor="middle" x="1566.36" y="-16.73" font-family="Helvetica,sans-Serif" font-size="10.00" fill="#666666">CustomerOutboundWire</text>
</g>
<!-- role__CustomerDDA&#45;&gt;rail__bundle_1 -->
<g id="edge41" class="edge">
<title>role__CustomerDDA&#45;&gt;rail__bundle_1</title>
<path fill="none" stroke="#1f4e79" stroke-width="1.9" d="M1359.15,-179.04C1392.37,-145.85 1458.82,-79.48 1458.82,-79.48 1458.82,-79.48 1477.26,-72.21 1498.79,-63.72"/>
</g>
<!-- role__ExternalCardNetwork -->
<g id="node6" class="node">
<title>role__ExternalCardNetwork</title>
<path fill="#fff2cc" stroke="#7f6000" d="M302.86,-306.48C302.86,-306.48 217.11,-306.48 217.11,-306.48 211.11,-306.48 205.11,-300.48 205.11,-294.48 205.11,-294.48 205.11,-282.48 205.11,-282.48 205.11,-276.48 211.11,-270.48 217.11,-270.48 217.11,-270.48 302.86,-270.48 302.86,-270.48 308.86,-270.48 314.86,-276.48 314.86,-282.48 314.86,-282.48 314.86,-294.48 314.86,-294.48 314.86,-300.48 308.86,-306.48 302.86,-306.48"/>
<text xml:space="preserve" text-anchor="middle" x="259.98" y="-284.6" font-family="Helvetica,sans-Serif" font-size="10.00" fill="#7f6000">ExternalCardNetwork</text>
</g>
<!-- rail__MerchantCardSale -->
<g id="node27" class="node">
<title>rail__MerchantCardSale</title>
<ellipse fill="#f5f5f5" stroke="#666666" cx="435.05" cy="-288.48" rx="57.39" ry="18"/>
<text xml:space="preserve" text-anchor="middle" x="435.05" y="-284.6" font-family="Helvetica,sans-Serif" font-size="10.00" fill="#666666">MerchantCardSale</text>
</g>
<!-- role__ExternalCardNetwork&#45;&gt;rail__MerchantCardSale -->
<g id="edge21" class="edge">
<title>role__ExternalCardNetwork&#45;&gt;rail__MerchantCardSale</title>
<path fill="none" stroke="#1f4e79" d="M315.27,-288.48C334.99,-288.48 357.33,-288.48 377.27,-288.48"/>
</g>
<!-- role__ExternalCounterparty -->
<g id="node7" class="node">
<title>role__ExternalCounterparty</title>
<path fill="#fff2cc" stroke="#7f6000" d="M986.4,-189.48C986.4,-189.48 902.15,-189.48 902.15,-189.48 896.15,-189.48 890.15,-183.48 890.15,-177.48 890.15,-177.48 890.15,-165.48 890.15,-165.48 890.15,-159.48 896.15,-153.48 902.15,-153.48 902.15,-153.48 986.4,-153.48 986.4,-153.48 992.4,-153.48 998.4,-159.48 998.4,-165.48 998.4,-165.48 998.4,-177.48 998.4,-177.48 998.4,-183.48 992.4,-189.48 986.4,-189.48"/>
<text xml:space="preserve" text-anchor="middle" x="944.28" y="-167.6" font-family="Helvetica,sans-Serif" font-size="10.00" fill="#7f6000">ExternalCounterparty</text>
</g>
<!-- rail__CustomerInboundACH -->
<g id="node15" class="node">
<title>rail__CustomerInboundACH</title>
<ellipse fill="#f5f5f5" stroke="#666666" cx="1159.67" cy="-95.48" rx="68.05" ry="18"/>
<text xml:space="preserve" text-anchor="middle" x="1159.67" y="-91.6" font-family="Helvetica,sans-Serif" font-size="10.00" fill="#666666">CustomerInboundACH</text>
</g>
<!-- role__ExternalCounterparty&#45;&gt;rail__CustomerInboundACH -->
<g id="edge1" class="edge">
<title>role__ExternalCounterparty&#45;&gt;rail__CustomerInboundACH</title>
<path fill="none" stroke="#1f4e79" d="M987.43,-153.09C1022.52,-137.78 1066.78,-118.48 1066.78,-118.48 1066.78,-118.48 1087.31,-113.34 1108.96,-107.92"/>
</g>
<!-- rail__CustomerFeeMonthlySettlement -->
<g id="node23" class="node">
<title>rail__CustomerFeeMonthlySettlement</title>
<ellipse fill="#f5f5f5" stroke="#666666" cx="1159.67" cy="-142.48" rx="92.9" ry="18"/>
<text xml:space="preserve" text-anchor="middle" x="1159.67" y="-138.6" font-family="Helvetica,sans-Serif" font-size="10.00" fill="#666666">CustomerFeeMonthlySettlement</text>
</g>
<!-- role__ExternalCounterparty&#45;&gt;rail__CustomerFeeMonthlySettlement -->
<g id="edge14" class="edge">
<title>role__ExternalCounterparty&#45;&gt;rail__CustomerFeeMonthlySettlement</title>
<path fill="none" stroke="#7f6000" d="M998.85,-164.2C1024.16,-160.76 1054.82,-156.59 1082.5,-152.83"/>
</g>
<!-- rail__InternalBalanceMaintenance -->
<g id="node24" class="node">
<title>rail__InternalBalanceMaintenance</title>
<ellipse fill="#f5f5f5" stroke="#666666" cx="1159.67" cy="-330.48" rx="82.25" ry="18"/>
<text xml:space="preserve" text-anchor="middle" x="1159.67" y="-326.6" font-family="Helvetica,sans-Serif" font-size="10.00" fill="#666666">InternalBalanceMaintenance</text>
</g>
<!-- role__ExternalCounterparty&#45;&gt;rail__InternalBalanceMaintenance -->
<g id="edge15" class="edge">
<title>role__ExternalCounterparty&#45;&gt;rail__InternalBalanceMaintenance</title>
<path fill="none" stroke="#1f4e79" d="M955.77,-189.83C976.52,-226.1 1020.78,-303.48 1020.78,-303.48 1020.78,-303.48 1060.56,-311.27 1097.39,-318.48"/>
</g>
<!-- rail__bundle_0 -->
<g id="node40" class="node">
<title>rail__bundle_0</title>
<ellipse fill="#e8e8e8" stroke="#1f4e79" stroke-width="1.5" cx="1159.67" cy="-201.48" rx="81.85" ry="29.52"/>
<text xml:space="preserve" text-anchor="middle" x="1159.67" y="-208.85" font-family="Helvetica,sans-Serif" font-size="10.00" fill="#666666">2 rails:</text>
<text xml:space="preserve" text-anchor="middle" x="1159.67" y="-197.6" font-family="Helvetica,sans-Serif" font-size="10.00" fill="#666666">CustomerCashDeposit</text>
<text xml:space="preserve" text-anchor="middle" x="1159.67" y="-186.35" font-family="Helvetica,sans-Serif" font-size="10.00" fill="#666666">CustomerInboundWire</text>
</g>
<!-- role__ExternalCounterparty&#45;&gt;rail__bundle_0 -->
<g id="edge39" class="edge">
<title>role__ExternalCounterparty&#45;&gt;rail__bundle_0</title>
<path fill="none" stroke="#1f4e79" stroke-width="1.6" d="M998.85,-179.01C1024.16,-182.57 1054.82,-186.88 1082.5,-190.77"/>
</g>
<!-- role__InternalSuspenseRecon -->
<g id="node8" class="node">
<title>role__InternalSuspenseRecon</title>
<path fill="#dbe9f6" stroke="#1f4e79" d="M1387.82,-356.48C1387.82,-356.48 1291.57,-356.48 1291.57,-356.48 1285.57,-356.48 1279.57,-350.48 1279.57,-344.48 1279.57,-344.48 1279.57,-332.48 1279.57,-332.48 1279.57,-326.48 1285.57,-320.48 1291.57,-320.48 1291.57,-320.48 1387.82,-320.48 1387.82,-320.48 1393.82,-320.48 1399.82,-326.48 1399.82,-332.48 1399.82,-332.48 1399.82,-344.48 1399.82,-344.48 1399.82,-350.48 1393.82,-356.48 1387.82,-356.48"/>
<text xml:space="preserve" text-anchor="middle" x="1339.69" y="-334.6" font-family="Helvetica,sans-Serif" font-size="10.00" fill="#1f4e79">InternalSuspenseRecon</text>
</g>
<!-- role__InternalSuspenseRecon&#45;&gt;rail__CustomerFeeAccrual -->
<g id="edge7" class="edge">
<title>role__InternalSuspenseRecon&#45;&gt;rail__CustomerFeeAccrual</title>
<path fill="none" stroke="#7f6000" d="M1400.31,-326C1435.8,-318.58 1480.37,-309.26 1514.24,-302.17"/>
</g>
<!-- rail__NoFraudReview -->
<g id="node35" class="node">
<title>rail__NoFraudReview</title>
<ellipse fill="#f5f5f5" stroke="#666666" cx="1566.36" cy="-385.48" rx="51.18" ry="18"/>
<text xml:space="preserve" text-anchor="middle" x="1566.36" y="-381.6" font-family="Helvetica,sans-Serif" font-size="10.00" fill="#666666">NoFraudReview</text>
</g>
<!-- role__InternalSuspenseRecon&#45;&gt;rail__NoFraudReview -->
<g id="edge33" class="edge">
<title>role__InternalSuspenseRecon&#45;&gt;rail__NoFraudReview</title>
<path fill="none" stroke="#7f6000" d="M1400.31,-350.95C1438.4,-358.92 1486.95,-369.07 1521.51,-376.3"/>
</g>
<!-- rail__StandardFraudReview -->
<g id="node36" class="node">
<title>rail__StandardFraudReview</title>
<ellipse fill="#f5f5f5" stroke="#666666" cx="1566.36" cy="-338.48" rx="66.71" ry="18"/>
<text xml:space="preserve" text-anchor="middle" x="1566.36" y="-334.6" font-family="Helvetica,sans-Serif" font-size="10.00" fill="#666666">StandardFraudReview</text>
</g>
<!-- role__InternalSuspenseRecon&#45;&gt;rail__StandardFraudReview -->
<g id="edge34" class="edge">
<title>role__InternalSuspenseRecon&#45;&gt;rail__StandardFraudReview</title>
<path fill="none" stroke="#7f6000" d="M1400.31,-338.48C1430.86,-338.48 1468.14,-338.48 1499.53,-338.48"/>
</g>
<!-- rail__EnhancedFraudReview -->
<g id="node37" class="node">
<title>rail__EnhancedFraudReview</title>
<ellipse fill="#f5f5f5" stroke="#666666" cx="1566.36" cy="-432.48" rx="69.38" ry="18"/>
<text xml:space="preserve" text-anchor="middle" x="1566.36" y="-428.6" font-family="Helvetica,sans-Serif" font-size="10.00" fill="#666666">EnhancedFraudReview</text>
</g>
<!-- role__InternalSuspenseRecon&#45;&gt;rail__EnhancedFraudReview -->
<g id="edge35" class="edge">
<title>role__InternalSuspenseRecon&#45;&gt;rail__EnhancedFraudReview</title>
<path fill="none" stroke="#7f6000" d="M1371.42,-356.95C1406.42,-377.98 1458.82,-409.48 1458.82,-409.48 1458.82,-409.48 1485.45,-415.23 1512.09,-420.98"/>
</g>
<!-- role__InternalTransferSuspense -->
<g id="node9" class="node">
<title>role__InternalTransferSuspense</title>
<path fill="#dbe9f6" stroke="#1f4e79" d="M123.03,-353.48C123.03,-353.48 19.28,-353.48 19.28,-353.48 13.28,-353.48 7.28,-347.48 7.28,-341.48 7.28,-341.48 7.28,-329.48 7.28,-329.48 7.28,-323.48 13.28,-317.48 19.28,-317.48 19.28,-317.48 123.03,-317.48 123.03,-317.48 129.03,-317.48 135.03,-323.48 135.03,-329.48 135.03,-329.48 135.03,-341.48 135.03,-341.48 135.03,-347.48 129.03,-353.48 123.03,-353.48"/>
<text xml:space="preserve" text-anchor="middle" x="71.15" y="-331.6" font-family="Helvetica,sans-Serif" font-size="10.00" fill="#1f4e79">InternalTransferSuspense</text>
</g>
<!-- rail__InternalTransferSuspenseClose -->
<g id="node18" class="node">
<title>rail__InternalTransferSuspenseClose</title>
<ellipse fill="#f5f5f5" stroke="#666666" cx="259.98" cy="-335.48" rx="90.68" ry="18"/>
<text xml:space="preserve" text-anchor="middle" x="259.98" y="-331.6" font-family="Helvetica,sans-Serif" font-size="10.00" fill="#666666">InternalTransferSuspenseClose</text>
</g>
<!-- role__InternalTransferSuspense&#45;&gt;rail__InternalTransferSuspenseClose -->
<g id="edge5" class="edge">
<title>role__InternalTransferSuspense&#45;&gt;rail__InternalTransferSuspenseClose</title>
<path fill="none" stroke="#7f6000" d="M135.4,-335.48C146.2,-335.48 157.6,-335.48 168.93,-335.48"/>
</g>
<!-- role__MerchantDDA -->
<g id="node10" class="node">
<title>role__MerchantDDA</title>
<polygon fill="#e8f0ff" stroke="#1f4e79" points="983.4,-371.48 980.4,-375.48 959.4,-375.48 956.4,-371.48 905.15,-371.48 905.15,-335.48 983.4,-335.48 983.4,-371.48"/>
<text xml:space="preserve" text-anchor="middle" x="944.28" y="-349.6" font-family="Helvetica,sans-Serif" font-size="10.00" fill="#1f4e79">MerchantDDA</text>
</g>
<!-- role__MerchantDDAControl -->
<g id="node11" class="node">
<title>role__MerchantDDAControl</title>
<path fill="#dbe9f6" stroke="#1f4e79" d="M1202.55,-395.48C1202.55,-395.48 1116.8,-395.48 1116.8,-395.48 1110.8,-395.48 1104.8,-389.48 1104.8,-383.48 1104.8,-383.48 1104.8,-371.48 1104.8,-371.48 1104.8,-365.48 1110.8,-359.48 1116.8,-359.48 1116.8,-359.48 1202.55,-359.48 1202.55,-359.48 1208.55,-359.48 1214.55,-365.48 1214.55,-371.48 1214.55,-371.48 1214.55,-383.48 1214.55,-383.48 1214.55,-389.48 1208.55,-395.48 1202.55,-395.48"/>
<text xml:space="preserve" text-anchor="middle" x="1159.67" y="-373.6" font-family="Helvetica,sans-Serif" font-size="10.00" fill="#1f4e79">MerchantDDAControl</text>
</g>
<!-- role__MerchantDDA&#45;&gt;role__MerchantDDAControl -->
<g id="edge44" class="edge">
<title>role__MerchantDDA&#45;&gt;role__MerchantDDAControl</title>
<path fill="none" stroke="#888888" stroke-dasharray="5,2" d="M983.43,-357.77C1013.83,-361.19 1057.09,-366.05 1093.03,-370.09"/>
<polygon fill="none" stroke="#888888" points="1092.58,-373.57 1102.91,-371.21 1093.37,-366.61 1092.58,-373.57"/>
<text xml:space="preserve" text-anchor="middle" x="1037.28" y="-376.43" font-family="Helvetica,sans-Serif" font-size="9.00" fill="#888888">controls</text>
<text xml:space="preserve" text-anchor="middle" x="1037.28" y="-366.68" font-family="Helvetica,sans-Serif" font-size="9.00" fill="#888888">($ caps)</text>
</g>
<!-- role__MerchantPayableClearing -->
<g id="node12" class="node">
<title>role__MerchantPayableClearing</title>
<path fill="#dbe9f6" stroke="#1f4e79" d="M635.2,-306.48C635.2,-306.48 531.45,-306.48 531.45,-306.48 525.45,-306.48 519.45,-300.48 519.45,-294.48 519.45,-294.48 519.45,-282.48 519.45,-282.48 519.45,-276.48 525.45,-270.48 531.45,-270.48 531.45,-270.48 635.2,-270.48 635.2,-270.48 641.2,-270.48 647.2,-276.48 647.2,-282.48 647.2,-282.48 647.2,-294.48 647.2,-294.48 647.2,-300.48 641.2,-306.48 635.2,-306.48"/>
<text xml:space="preserve" text-anchor="middle" x="583.32" y="-284.6" font-family="Helvetica,sans-Serif" font-size="10.00" fill="#1f4e79">MerchantPayableClearing</text>
</g>
<!-- rail__MerchantPayoutACH -->
<g id="node28" class="node">
<title>rail__MerchantPayoutACH</title>
<ellipse fill="#f5f5f5" stroke="#666666" cx="763.99" cy="-335.48" rx="64.49" ry="18"/>
<text xml:space="preserve" text-anchor="middle" x="763.99" y="-331.6" font-family="Helvetica,sans-Serif" font-size="10.00" fill="#666666">MerchantPayoutACH</text>
</g>
<!-- role__MerchantPayableClearing&#45;&gt;rail__MerchantPayoutACH -->
<g id="edge23" class="edge">
<title>role__MerchantPayableClearing&#45;&gt;rail__MerchantPayoutACH</title>
<path fill="none" stroke="#1f4e79" d="M647.56,-305.11C670.05,-311.03 694.95,-317.58 715.86,-323.08"/>
</g>
<!-- rail__MerchantPayoutWire -->
<g id="node29" class="node">
<title>rail__MerchantPayoutWire</title>
<ellipse fill="#f5f5f5" stroke="#666666" cx="763.99" cy="-288.48" rx="63.61" ry="18"/>
<text xml:space="preserve" text-anchor="middle" x="763.99" y="-284.6" font-family="Helvetica,sans-Serif" font-size="10.00" fill="#666666">MerchantPayoutWire</text>
</g>
<!-- role__MerchantPayableClearing&#45;&gt;rail__MerchantPayoutWire -->
<g id="edge25" class="edge">
<title>role__MerchantPayableClearing&#45;&gt;rail__MerchantPayoutWire</title>
<path fill="none" stroke="#1f4e79" d="M647.56,-288.48C664.63,-288.48 683.09,-288.48 700.13,-288.48"/>
</g>
<!-- rail__MerchantPayoutCheck -->
<g id="node30" class="node">
<title>rail__MerchantPayoutCheck</title>
<ellipse fill="#f5f5f5" stroke="#666666" cx="763.99" cy="-241.48" rx="68.49" ry="18"/>
<text xml:space="preserve" text-anchor="middle" x="763.99" y="-237.6" font-family="Helvetica,sans-Serif" font-size="10.00" fill="#666666">MerchantPayoutCheck</text>
</g>
<!-- role__MerchantPayableClearing&#45;&gt;rail__MerchantPayoutCheck -->
<g id="edge27" class="edge">
<title>role__MerchantPayableClearing&#45;&gt;rail__MerchantPayoutCheck</title>
<path fill="none" stroke="#1f4e79" d="M647.23,-271.68C662.34,-267.64 674.2,-264.48 674.2,-264.48 674.2,-264.48 693.38,-259.51 713.92,-254.19"/>
</g>
<!-- rail__SettlementAutoSettle -->
<g id="node32" class="node">
<title>rail__SettlementAutoSettle</title>
<ellipse fill="#f5f5f5" stroke="#666666" cx="763.99" cy="-194.48" rx="64.49" ry="18"/>
<text xml:space="preserve" text-anchor="middle" x="763.99" y="-190.6" font-family="Helvetica,sans-Serif" font-size="10.00" fill="#666666">SettlementAutoSettle</text>
</g>
<!-- role__MerchantPayableClearing&#45;&gt;rail__SettlementAutoSettle -->
<g id="edge30" class="edge">
<title>role__MerchantPayableClearing&#45;&gt;rail__SettlementAutoSettle</title>
<path fill="none" stroke="#7f6000" d="M607.47,-270.19C634.1,-249.16 674.2,-217.48 674.2,-217.48 674.2,-217.48 694.36,-212.25 715.47,-206.78"/>
</g>
<!-- rail__SettlementStandardSettle -->
<g id="node33" class="node">
<title>rail__SettlementStandardSettle</title>
<ellipse fill="#f5f5f5" stroke="#666666" cx="763.99" cy="-147.48" rx="75.59" ry="18"/>
<text xml:space="preserve" text-anchor="middle" x="763.99" y="-143.6" font-family="Helvetica,sans-Serif" font-size="10.00" fill="#666666">SettlementStandardSettle</text>
</g>
<!-- role__MerchantPayableClearing&#45;&gt;rail__SettlementStandardSettle -->
<g id="edge31" class="edge">
<title>role__MerchantPayableClearing&#45;&gt;rail__SettlementStandardSettle</title>
<path fill="none" stroke="#7f6000" d="M598.37,-270.04C623.64,-236.85 674.2,-170.48 674.2,-170.48 674.2,-170.48 691.96,-165.88 711.59,-160.79"/>
</g>
<!-- rail__SettlementSlowSettle -->
<g id="node34" class="node">
<title>rail__SettlementSlowSettle</title>
<ellipse fill="#f5f5f5" stroke="#666666" cx="763.99" cy="-429.48" rx="65.38" ry="18"/>
<text xml:space="preserve" text-anchor="middle" x="763.99" y="-425.6" font-family="Helvetica,sans-Serif" font-size="10.00" fill="#666666">SettlementSlowSettle</text>
</g>
<!-- role__MerchantPayableClearing&#45;&gt;rail__SettlementSlowSettle -->
<g id="edge32" class="edge">
<title>role__MerchantPayableClearing&#45;&gt;rail__SettlementSlowSettle</title>
<path fill="none" stroke="#7f6000" d="M598.37,-306.91C623.64,-340.1 674.2,-406.48 674.2,-406.48 674.2,-406.48 694.2,-411.66 715.21,-417.1"/>
</g>
<!-- rail__MerchantDailySettleAggregator -->
<g id="node38" class="node">
<title>rail__MerchantDailySettleAggregator</title>
<ellipse fill="#f5f5f5" stroke="#666666" cx="763.99" cy="-382.48" rx="89.79" ry="18"/>
<text xml:space="preserve" text-anchor="middle" x="763.99" y="-378.6" font-family="Helvetica,sans-Serif" font-size="10.00" fill="#666666">MerchantDailySettleAggregator</text>
</g>
<!-- role__MerchantPayableClearing&#45;&gt;rail__MerchantDailySettleAggregator -->
<g id="edge36" class="edge">
<title>role__MerchantPayableClearing&#45;&gt;rail__MerchantDailySettleAggregator</title>
<path fill="none" stroke="#1f4e79" d="M607.47,-306.76C634.1,-327.8 674.2,-359.48 674.2,-359.48 674.2,-359.48 689.56,-363.46 707.51,-368.11"/>
</g>
<!-- role__WireSettlementSuspense -->
<g id="node13" class="node">
<title>role__WireSettlementSuspense</title>
<path fill="#dbe9f6" stroke="#1f4e79" d="M995.78,-467.48C995.78,-467.48 892.78,-467.48 892.78,-467.48 886.78,-467.48 880.78,-461.48 880.78,-455.48 880.78,-455.48 880.78,-443.48 880.78,-443.48 880.78,-437.48 886.78,-431.48 892.78,-431.48 892.78,-431.48 995.78,-431.48 995.78,-431.48 1001.78,-431.48 1007.78,-437.48 1007.78,-443.48 1007.78,-443.48 1007.78,-455.48 1007.78,-455.48 1007.78,-461.48 1001.78,-467.48 995.78,-467.48"/>
<text xml:space="preserve" text-anchor="middle" x="944.28" y="-445.6" font-family="Helvetica,sans-Serif" font-size="10.00" fill="#1f4e79">WireSettlementSuspense</text>
</g>
<!-- role__ZBASubAccount -->
<g id="node14" class="node">
<title>role__ZBASubAccount</title>
<polygon fill="#e8f0ff" stroke="#1f4e79" points="304.36,-113.48 301.36,-117.48 280.36,-117.48 277.36,-113.48 215.61,-113.48 215.61,-77.48 304.36,-77.48 304.36,-113.48"/>
<text xml:space="preserve" text-anchor="middle" x="259.98" y="-91.6" font-family="Helvetica,sans-Serif" font-size="10.00" fill="#1f4e79">ZBASubAccount</text>
</g>
<!-- role__ZBASubAccount&#45;&gt;role__ConcentrationMaster -->
<g id="edge45" class="edge">
<title>role__ZBASubAccount&#45;&gt;role__ConcentrationMaster</title>
<path fill="none" stroke="#888888" stroke-dasharray="5,2" d="M304.76,-96.6C337.87,-97.45 377.66,-98.48 377.66,-98.48 377.66,-98.48 458.25,-99.26 518.29,-99.85"/>
<polygon fill="none" stroke="#888888" points="518.07,-103.35 528.1,-99.95 518.14,-96.35 518.07,-103.35"/>
<text xml:space="preserve" text-anchor="middle" x="435.05" y="-100.79" font-family="Helvetica,sans-Serif" font-size="9.00" fill="#888888">controls</text>
</g>
<!-- rail__ZBASweep -->
<g id="node20" class="node">
<title>rail__ZBASweep</title>
<ellipse fill="#f5f5f5" stroke="#666666" cx="435.05" cy="-75.48" rx="38.76" ry="18"/>
<text xml:space="preserve" text-anchor="middle" x="435.05" y="-71.6" font-family="Helvetica,sans-Serif" font-size="10.00" fill="#666666">ZBASweep</text>
</g>
<!-- role__ZBASubAccount&#45;&gt;rail__ZBASweep -->
<g id="edge8" class="edge">
<title>role__ZBASubAccount&#45;&gt;rail__ZBASweep</title>
<path fill="none" stroke="#1f4e79" d="M304.65,-90.43C333.19,-87.13 370.05,-82.87 397.13,-79.74"/>
</g>
<!-- rail__CustomerInboundACH&#45;&gt;role__CustomerDDA -->
<g id="edge2" class="edge">
<title>rail__CustomerInboundACH&#45;&gt;role__CustomerDDA</title>
<path fill="none" stroke="#1f4e79" d="M1210.39,-107.92C1232.04,-113.34 1252.57,-118.48 1252.57,-118.48 1252.57,-118.48 1285.43,-148.62 1310.55,-171.66"/>
<polygon fill="#1f4e79" stroke="#1f4e79" points="1317.82,-178.33 1307.41,-174.89 1315.03,-175.77 1310.45,-171.57 1310.45,-171.57 1310.45,-171.57 1315.03,-175.77 1313.49,-168.25 1317.82,-178.33"/>
</g>
<!-- rail__InternalTransferCredit -->
<g id="node17" class="node">
<title>rail__InternalTransferCredit</title>
<ellipse fill="#f5f5f5" stroke="#666666" cx="1159.67" cy="-260.48" rx="65.38" ry="18"/>
<text xml:space="preserve" text-anchor="middle" x="1159.67" y="-256.6" font-family="Helvetica,sans-Serif" font-size="10.00" fill="#666666">InternalTransferCredit</text>
</g>
<!-- rail__InternalTransferCredit&#45;&gt;role__CustomerDDA -->
<g id="edge4" class="edge">
<title>rail__InternalTransferCredit&#45;&gt;role__CustomerDDA</title>
<path fill="none" stroke="#7f6000" d="M1208.24,-248.05C1230.66,-242.2 1252.57,-236.48 1252.57,-236.48 1252.57,-236.48 1269.94,-228.61 1289.07,-219.95"/>
<polygon fill="#7f6000" stroke="#7f6000" points="1298.05,-215.88 1290.8,-224.11 1294.61,-217.44 1288.94,-220.01 1288.94,-220.01 1288.94,-220.01 1294.61,-217.44 1287.09,-215.91 1298.05,-215.88"/>
</g>
<!-- rail__ZBASweep&#45;&gt;role__ConcentrationMaster -->
<g id="edge9" class="edge">
<title>rail__ZBASweep&#45;&gt;role__ConcentrationMaster</title>
<path fill="none" stroke="#1f4e79" d="M471.83,-81.59C485.92,-84 502.54,-86.84 518.54,-89.58"/>
<polygon fill="#1f4e79" stroke="#1f4e79" points="528.29,-91.24 517.67,-93.99 524.56,-90.6 518.43,-89.56 518.43,-89.56 518.43,-89.56 524.56,-90.6 519.19,-85.12 528.29,-91.24"/>
</g>
<!-- rail__ConcentrationToFRBSweep&#45;&gt;role__ExternalCounterparty -->
<g id="edge11" class="edge">
<title>rail__ConcentrationToFRBSweep&#45;&gt;role__ExternalCounterparty</title>
<path fill="none" stroke="#1f4e79" d="M818.17,-114.25C837.08,-119.15 853.78,-123.48 853.78,-123.48 853.78,-123.48 876.68,-135.76 899.31,-147.9"/>
<polygon fill="#1f4e79" stroke="#1f4e79" points="907.86,-152.48 896.92,-151.72 904.52,-150.69 899.04,-147.75 899.04,-147.75 899.04,-147.75 904.52,-150.69 901.17,-143.79 907.86,-152.48"/>
</g>
<!-- rail__ACHOriginationDailySweep&#45;&gt;role__CashDueFRB -->
<g id="edge13" class="edge">
<title>rail__ACHOriginationDailySweep&#45;&gt;role__CashDueFRB</title>
<path fill="none" stroke="#1f4e79" d="M341.18,-28.48C356.1,-28.48 371.28,-28.48 384.92,-28.48"/>
<polygon fill="#1f4e79" stroke="#1f4e79" points="394.76,-28.48 384.76,-32.98 390.97,-28.48 384.76,-28.48 384.76,-28.48 384.76,-28.48 390.97,-28.48 384.76,-23.98 394.76,-28.48"/>
</g>
<!-- rail__InternalBalanceMaintenance&#45;&gt;role__InternalSuspenseRecon -->
<g id="edge16" class="edge">
<title>rail__InternalBalanceMaintenance&#45;&gt;role__InternalSuspenseRecon</title>
<path fill="none" stroke="#1f4e79" d="M1240.83,-334.08C1249.92,-334.49 1259.12,-334.9 1268.07,-335.3"/>
<polygon fill="#1f4e79" stroke="#1f4e79" points="1278.02,-335.75 1267.83,-339.8 1274.25,-335.58 1268.03,-335.3 1268.03,-335.3 1268.03,-335.3 1274.25,-335.58 1268.24,-330.81 1278.02,-335.75"/>
</g>
<!-- rail__CustomerInboundACHReturnNSF&#45;&gt;role__ExternalCounterparty -->
<g id="edge18" class="edge">
<title>rail__CustomerInboundACHReturnNSF&#45;&gt;role__ExternalCounterparty</title>
<path fill="none" stroke="#1f4e79" d="M1484.4,-254.57C1391.72,-266.13 1252.57,-283.48 1252.57,-283.48 1252.57,-283.48 1066.78,-283.48 1066.78,-283.48 1066.78,-283.48 1009.42,-230.6 973.52,-197.51"/>
<polygon fill="#1f4e79" stroke="#1f4e79" points="966.24,-190.8 976.64,-194.27 969.02,-193.36 973.59,-197.57 973.59,-197.57 973.59,-197.57 969.02,-193.36 970.54,-200.88 966.24,-190.8"/>
</g>
<!-- rail__CustomerInboundACHReturnStopPay&#45;&gt;role__ExternalCounterparty -->
<g id="edge20" class="edge">
<title>rail__CustomerInboundACHReturnStopPay&#45;&gt;role__ExternalCounterparty</title>
<path fill="none" stroke="#1f4e79" d="M1473.63,-94.09C1381.33,-84.65 1252.57,-71.48 1252.57,-71.48 1252.57,-71.48 1066.78,-71.48 1066.78,-71.48 1066.78,-71.48 1011.81,-116.72 975.81,-146.34"/>
<polygon fill="#1f4e79" stroke="#1f4e79" points="968.5,-152.36 973.36,-142.53 971.42,-149.96 976.22,-146.01 976.22,-146.01 976.22,-146.01 971.42,-149.96 979.08,-149.48 968.5,-152.36"/>
</g>
<!-- rail__MerchantCardSale&#45;&gt;role__MerchantPayableClearing -->
<g id="edge22" class="edge">
<title>rail__MerchantCardSale&#45;&gt;role__MerchantPayableClearing</title>
<path fill="none" stroke="#1f4e79" d="M492.6,-288.48C497.76,-288.48 503.03,-288.48 508.31,-288.48"/>
<polygon fill="#1f4e79" stroke="#1f4e79" points="517.89,-288.48 507.89,-292.98 514.11,-288.48 507.89,-288.48 507.89,-288.48 507.89,-288.48 514.11,-288.48 507.89,-283.98 517.89,-288.48"/>
</g>
<!-- rail__MerchantPayoutACH&#45;&gt;role__MerchantDDA -->
<g id="edge24" class="edge">
<title>rail__MerchantPayoutACH&#45;&gt;role__MerchantDDA</title>
<path fill="none" stroke="#1f4e79" d="M825.35,-341.57C847.61,-343.82 872.56,-346.34 893.76,-348.48"/>
<polygon fill="#1f4e79" stroke="#1f4e79" points="903.57,-349.47 893.17,-352.94 899.81,-349.09 893.62,-348.46 893.62,-348.46 893.62,-348.46 899.81,-349.09 894.07,-343.99 903.57,-349.47"/>
</g>
<!-- rail__MerchantPayoutWire&#45;&gt;role__ExternalCounterparty -->
<g id="edge26" class="edge">
<title>rail__MerchantPayoutWire&#45;&gt;role__ExternalCounterparty</title>
<path fill="none" stroke="#1f4e79" d="M811.2,-275.98C832.78,-270.15 853.78,-264.48 853.78,-264.48 853.78,-264.48 891.66,-225.11 918.14,-197.6"/>
<polygon fill="#1f4e79" stroke="#1f4e79" points="924.75,-190.73 921.06,-201.05 922.13,-193.45 917.82,-197.93 917.82,-197.93 917.82,-197.93 922.13,-193.45 914.57,-194.81 924.75,-190.73"/>
</g>
<!-- rail__MerchantPayoutCheck&#45;&gt;role__ExternalCounterparty -->
<g id="edge28" class="edge">
<title>rail__MerchantPayoutCheck&#45;&gt;role__ExternalCounterparty</title>
<path fill="none" stroke="#1f4e79" d="M813.02,-228.49C833.94,-222.84 853.78,-217.48 853.78,-217.48 853.78,-217.48 875.56,-206.28 897.64,-194.93"/>
<polygon fill="#1f4e79" stroke="#1f4e79" points="906.31,-190.48 899.47,-199.05 902.94,-192.21 897.41,-195.05 897.41,-195.05 897.41,-195.05 902.94,-192.21 895.35,-191.05 906.31,-190.48"/>
</g>
<!-- rail__ExternalCardSettlement -->
<g id="node31" class="node">
<title>rail__ExternalCardSettlement</title>
<ellipse fill="#f5f5f5" stroke="#666666" cx="71.15" cy="-288.48" rx="71.15" ry="18"/>
<text xml:space="preserve" text-anchor="middle" x="71.15" y="-284.6" font-family="Helvetica,sans-Serif" font-size="10.00" fill="#666666">ExternalCardSettlement</text>
</g>
<!-- rail__ExternalCardSettlement&#45;&gt;role__ExternalCardNetwork -->
<g id="edge29" class="edge">
<title>rail__ExternalCardSettlement&#45;&gt;role__ExternalCardNetwork</title>
<path fill="none" stroke="#7f6000" d="M142.78,-288.48C159.49,-288.48 177.23,-288.48 193.69,-288.48"/>
<polygon fill="#7f6000" stroke="#7f6000" points="203.64,-288.48 193.64,-292.98 199.85,-288.48 193.64,-288.48 193.64,-288.48 193.64,-288.48 199.85,-288.48 193.64,-283.98 203.64,-288.48"/>
</g>
<!-- rail__MerchantDailySettleAggregator&#45;&gt;role__WireSettlementSuspense -->
<g id="edge37" class="edge">
<title>rail__MerchantDailySettleAggregator&#45;&gt;role__WireSettlementSuspense</title>
<path fill="none" stroke="#1f4e79" d="M818.94,-397.06C837.53,-402.09 853.78,-406.48 853.78,-406.48 853.78,-406.48 873.73,-416.06 894.79,-426.18"/>
<polygon fill="#1f4e79" stroke="#1f4e79" points="903.7,-430.46 892.74,-430.19 900.29,-428.83 894.69,-426.13 894.69,-426.13 894.69,-426.13 900.29,-428.83 896.64,-422.08 903.7,-430.46"/>
</g>
<!-- rail__MerchantWeeklyBatchClose -->
<g id="node39" class="node">
<title>rail__MerchantWeeklyBatchClose</title>
<ellipse fill="#f5f5f5" stroke="#666666" cx="763.99" cy="-476.48" rx="82.69" ry="18"/>
<text xml:space="preserve" text-anchor="middle" x="763.99" y="-472.6" font-family="Helvetica,sans-Serif" font-size="10.00" fill="#666666">MerchantWeeklyBatchClose</text>
</g>
<!-- rail__MerchantWeeklyBatchClose&#45;&gt;role__WireSettlementSuspense -->
<g id="edge38" class="edge">
<title>rail__MerchantWeeklyBatchClose&#45;&gt;role__WireSettlementSuspense</title>
<path fill="none" stroke="#7f6000" d="M832.9,-466.19C844.88,-464.38 857.4,-462.48 869.53,-460.64"/>
<polygon fill="#7f6000" stroke="#7f6000" points="879.33,-459.16 870.12,-465.11 875.59,-459.73 869.44,-460.66 869.44,-460.66 869.44,-460.66 875.59,-459.73 868.77,-456.21 879.33,-459.16"/>
</g>
<!-- rail__bundle_0&#45;&gt;role__CustomerDDA -->
<g id="edge40" class="edge">
<title>rail__bundle_0&#45;&gt;role__CustomerDDA</title>
<path fill="none" stroke="#1f4e79" stroke-width="1.6" d="M1241.87,-199.65C1257.49,-199.3 1273.43,-198.94 1287.75,-198.62"/>
<polygon fill="#1f4e79" stroke="#1f4e79" stroke-width="1.6" points="1297.41,-198.4 1287.51,-203.13 1294.36,-198.77 1287.42,-198.93 1287.41,-198.63 1287.4,-198.33 1294.35,-198.17 1287.31,-194.13 1297.41,-198.4"/>
</g>
<!-- rail__bundle_1&#45;&gt;role__ExternalCounterparty -->
<g id="edge42" class="edge">
<title>rail__bundle_1&#45;&gt;role__ExternalCounterparty</title>
<path fill="none" stroke="#1f4e79" stroke-width="1.9" d="M1474.49,-43.31C1330.68,-52.54 1066.78,-69.48 1066.78,-69.48 1066.78,-69.48 1020.78,-80.48 1020.78,-80.48 1020.78,-80.48 990.51,-116.96 968.3,-143.73"/>
<polygon fill="#1f4e79" stroke="#1f4e79" stroke-width="1.9" points="962.03,-151.28 964.96,-140.71 963.4,-148.93 968.07,-143.3 968.42,-143.58 968.77,-143.87 964.09,-149.5 971.88,-146.46 962.03,-151.28"/>
</g>
</g>
</svg>
