<?xml version="1.0" encoding="UTF-8" standalone="no"?>
<!DOCTYPE svg PUBLIC "-//W3C//DTD SVG 1.1//EN"
 "http://www.w3.org/Graphics/SVG/1.1/DTD/svg11.dtd">
<!-- Generated by graphviz version 14.1.5 (20260411.2331)
 -->
<!-- Title: l2_topology_per_rail_spike Pages: 1 -->
<svg width="1603pt" height="538pt"
 viewBox="0.00 0.00 1603.00 538.00" xmlns="http://www.w3.org/2000/svg" xmlns:xlink="http://www.w3.org/1999/xlink">
<g id="graph0" class="graph" transform="scale(1 1) rotate(0) translate(4 534)">
<title>l2_topology_per_rail_spike</title>
<polygon fill="white" stroke="none" points="-4,4 -4,-534 1599.25,-534 1599.25,4 -4,4"/>
<!-- role__ACHOrigSettlement -->
<g id="node1" class="node">
<title>role__ACHOrigSettlement</title>
<path fill="#dbe9f6" stroke="#1f4e79" d="M128.12,-49.73C128.12,-51.53 105.04,-53 76.62,-53 48.21,-53 25.12,-51.53 25.12,-49.73 25.12,-49.73 25.12,-20.27 25.12,-20.27 25.12,-18.47 48.21,-17 76.62,-17 105.04,-17 128.12,-18.47 128.12,-20.27 128.12,-20.27 128.12,-49.73 128.12,-49.73"/>
<path fill="none" stroke="#1f4e79" d="M128.12,-49.73C128.12,-47.92 105.04,-46.45 76.62,-46.45 48.21,-46.45 25.12,-47.92 25.12,-49.73"/>
<text xml:space="preserve" text-anchor="middle" x="76.62" y="-31.12" font-family="Helvetica,sans-Serif" font-size="10.00" fill="#1f4e79">ACHOrigSettlement</text>
</g>
<!-- rail__ACHOriginationDailySweep -->
<g id="node22" class="node">
<title>rail__ACHOriginationDailySweep</title>
<path fill="#f5f5f5" stroke="#666666" d="M321,-49.73C321,-51.53 290.35,-53 252.62,-53 214.9,-53 184.25,-51.53 184.25,-49.73 184.25,-49.73 184.25,-20.27 184.25,-20.27 184.25,-18.47 214.9,-17 252.62,-17 290.35,-17 321,-18.47 321,-20.27 321,-20.27 321,-49.73 321,-49.73"/>
<path fill="none" stroke="#666666" d="M321,-49.73C321,-47.92 290.35,-46.45 252.62,-46.45 214.9,-46.45 184.25,-47.92 184.25,-49.73"/>
<path fill="none" stroke="#666666" d="M325,-49.73C325,-55.35 290.45,-57 252.62,-57 214.8,-57 180.25,-55.35 180.25,-49.73 180.25,-49.73 180.25,-20.27 180.25,-20.27 180.25,-14.65 214.8,-13 252.62,-13 290.45,-13 325,-14.65 325,-20.27 325,-20.27 325,-49.73 325,-49.73"/>
<path fill="none" stroke="#666666" d="M325,-49.73C325,-44.11 290.45,-42.45 252.62,-42.45 214.8,-42.45 180.25,-44.11 180.25,-49.73"/>
<text xml:space="preserve" text-anchor="middle" x="252.62" y="-31.12" font-family="Helvetica,sans-Serif" font-size="10.00" fill="#666666">ACHOriginationDailySweep</text>
</g>
<!-- role__ACHOrigSettlement&#45;&gt;rail__ACHOriginationDailySweep -->
<g id="edge12" class="edge">
<title>role__ACHOrigSettlement&#45;&gt;rail__ACHOriginationDailySweep</title>
<path fill="none" stroke="#b34a02" stroke-width="1.5" d="M128.42,-35C140.71,-35 154.17,-35 167.54,-35"/>
<polygon fill="#b34a02" stroke="#b34a02" stroke-width="1.5" points="167.48,-38.5 177.48,-35 167.48,-31.5 167.48,-38.5"/>
</g>
<!-- role__CashDueFRB -->
<g id="node2" class="node">
<title>role__CashDueFRB</title>
<path fill="#dbe9f6" stroke="#1f4e79" d="M454.62,-49.73C454.62,-51.53 437.26,-53 415.88,-53 394.49,-53 377.12,-51.53 377.12,-49.73 377.12,-49.73 377.12,-20.27 377.12,-20.27 377.12,-18.47 394.49,-17 415.88,-17 437.26,-17 454.62,-18.47 454.62,-20.27 454.62,-20.27 454.62,-49.73 454.62,-49.73"/>
<path fill="none" stroke="#1f4e79" d="M454.62,-49.73C454.62,-47.92 437.26,-46.45 415.88,-46.45 394.49,-46.45 377.12,-47.92 377.12,-49.73"/>
<text xml:space="preserve" text-anchor="middle" x="415.88" y="-31.12" font-family="Helvetica,sans-Serif" font-size="10.00" fill="#1f4e79">CashDueFRB</text>
</g>
<!-- role__ConcentrationMaster -->
<g id="node3" class="node">
<title>role__ConcentrationMaster</title>
<path fill="#dbe9f6" stroke="#1f4e79" d="M624,-303.73C624,-305.53 600.08,-307 570.62,-307 541.17,-307 517.25,-305.53 517.25,-303.73 517.25,-303.73 517.25,-274.27 517.25,-274.27 517.25,-272.47 541.17,-271 570.62,-271 600.08,-271 624,-272.47 624,-274.27 624,-274.27 624,-303.73 624,-303.73"/>
<path fill="none" stroke="#1f4e79" d="M624,-303.73C624,-301.92 600.08,-300.45 570.62,-300.45 541.17,-300.45 517.25,-301.92 517.25,-303.73"/>
<text xml:space="preserve" text-anchor="middle" x="570.62" y="-285.12" font-family="Helvetica,sans-Serif" font-size="10.00" fill="#1f4e79">ConcentrationMaster</text>
</g>
<!-- rail__ConcentrationToFRBSweep -->
<g id="node21" class="node">
<title>rail__ConcentrationToFRBSweep</title>
<polygon fill="#f5f5f5" stroke="#666666" points="798.12,-301 672.62,-301 672.62,-277 798.12,-277 810.12,-289 798.12,-301"/>
<polygon fill="none" stroke="#666666" points="802.12,-305 668.62,-305 668.62,-273 802.12,-273 814.12,-289 802.12,-305"/>
<text xml:space="preserve" text-anchor="middle" x="741.38" y="-285.12" font-family="Helvetica,sans-Serif" font-size="10.00" fill="#666666">ConcentrationToFRBSweep</text>
</g>
<!-- role__ConcentrationMaster&#45;&gt;rail__ConcentrationToFRBSweep -->
<g id="edge10" class="edge">
<title>role__ConcentrationMaster&#45;&gt;rail__ConcentrationToFRBSweep</title>
<path fill="none" stroke="#b34a02" stroke-width="1.5" d="M624.09,-289C634.4,-289 645.44,-289 656.48,-289"/>
<polygon fill="#b34a02" stroke="#b34a02" stroke-width="1.5" points="656.14,-292.5 666.14,-289 656.14,-285.5 656.14,-292.5"/>
</g>
<!-- role__CustomerDDA -->
<g id="node4" class="node">
<title>role__CustomerDDA</title>
<polygon fill="#e8f0ff" stroke="#1f4e79" points="1326.62,-194 1323.62,-198 1302.62,-198 1299.62,-194 1246.12,-194 1246.12,-158 1326.62,-158 1326.62,-194"/>
<text xml:space="preserve" text-anchor="middle" x="1286.38" y="-172.12" font-family="Helvetica,sans-Serif" font-size="10.00" fill="#1f4e79">CustomerDDA</text>
</g>
<!-- role__DDAControl -->
<g id="node5" class="node">
<title>role__DDAControl</title>
<path fill="#dbe9f6" stroke="#1f4e79" d="M1535,-236.73C1535,-238.53 1519.48,-240 1500.38,-240 1481.27,-240 1465.75,-238.53 1465.75,-236.73 1465.75,-236.73 1465.75,-207.27 1465.75,-207.27 1465.75,-205.47 1481.27,-204 1500.38,-204 1519.48,-204 1535,-205.47 1535,-207.27 1535,-207.27 1535,-236.73 1535,-236.73"/>
<path fill="none" stroke="#1f4e79" d="M1535,-236.73C1535,-234.92 1519.48,-233.45 1500.38,-233.45 1481.27,-233.45 1465.75,-234.92 1465.75,-236.73"/>
<text xml:space="preserve" text-anchor="middle" x="1500.38" y="-218.12" font-family="Helvetica,sans-Serif" font-size="10.00" fill="#1f4e79">DDAControl</text>
</g>
<!-- role__CustomerDDA&#45;&gt;role__DDAControl -->
<g id="edge43" class="edge">
<title>role__CustomerDDA&#45;&gt;role__DDAControl</title>
<path fill="none" stroke="#888888" stroke-dasharray="5,2" d="M1326.75,-184.54C1362.89,-192.39 1416.4,-204 1454.25,-212.21"/>
<polygon fill="none" stroke="#888888" points="1453.46,-215.62 1463.97,-214.32 1454.94,-208.78 1453.46,-215.62"/>
<text xml:space="preserve" text-anchor="middle" x="1376" y="-208.57" font-family="Helvetica,sans-Serif" font-size="9.00" fill="#888888">controls</text>
<text xml:space="preserve" text-anchor="middle" x="1376" y="-198.82" font-family="Helvetica,sans-Serif" font-size="9.00" fill="#888888">($ caps)</text>
</g>
<!-- rail__InternalTransferDebit -->
<g id="node16" class="node">
<title>rail__InternalTransferDebit</title>
<polygon fill="#f5f5f5" stroke="#666666" points="1542.12,-187 1446.62,-187 1446.62,-163 1542.12,-163 1554.12,-175 1542.12,-187"/>
<text xml:space="preserve" text-anchor="middle" x="1500.38" y="-171.12" font-family="Helvetica,sans-Serif" font-size="10.00" fill="#666666">InternalTransferDebit</text>
</g>
<!-- role__CustomerDDA&#45;&gt;rail__InternalTransferDebit -->
<g id="edge3" class="edge">
<title>role__CustomerDDA&#45;&gt;rail__InternalTransferDebit</title>
<path fill="none" stroke="#b34a02" stroke-width="1.5" d="M1326.75,-175.81C1356.85,-175.67 1399,-175.47 1434.12,-175.31"/>
<polygon fill="#b34a02" stroke="#b34a02" stroke-width="1.5" points="1433.96,-178.81 1443.94,-175.26 1433.93,-171.81 1433.96,-178.81"/>
</g>
<!-- rail__CustomerFeeAccrual -->
<g id="node19" class="node">
<title>rail__CustomerFeeAccrual</title>
<polygon fill="#f5f5f5" stroke="#666666" points="1542.5,-344 1446.25,-344 1446.25,-320 1542.5,-320 1554.5,-332 1542.5,-344"/>
<text xml:space="preserve" text-anchor="middle" x="1500.38" y="-328.12" font-family="Helvetica,sans-Serif" font-size="10.00" fill="#666666">CustomerFeeAccrual</text>
</g>
<!-- role__CustomerDDA&#45;&gt;rail__CustomerFeeAccrual -->
<g id="edge6" class="edge">
<title>role__CustomerDDA&#45;&gt;rail__CustomerFeeAccrual</title>
<path fill="none" stroke="#b34a02" stroke-width="1.5" d="M1304.8,-194.3C1337.66,-228.79 1405.5,-300 1405.5,-300 1405.5,-300 1418.22,-304.34 1434.3,-309.82"/>
<polygon fill="#b34a02" stroke="#b34a02" stroke-width="1.5" points="1433.11,-313.11 1443.71,-313.02 1435.37,-306.48 1433.11,-313.11"/>
</g>
<!-- rail__CustomerInboundACHReturnNSF -->
<g id="node25" class="node">
<title>rail__CustomerInboundACHReturnNSF</title>
<polygon fill="#f5f5f5" stroke="#666666" points="1570.62,-285 1418.12,-285 1418.12,-261 1570.62,-261 1582.62,-273 1570.62,-285"/>
<polygon fill="none" stroke="#666666" points="1574.62,-289 1414.12,-289 1414.12,-257 1574.62,-257 1586.62,-273 1574.62,-289"/>
<text xml:space="preserve" text-anchor="middle" x="1500.38" y="-269.12" font-family="Helvetica,sans-Serif" font-size="10.00" fill="#666666">CustomerInboundACHReturnNSF</text>
</g>
<!-- role__CustomerDDA&#45;&gt;rail__CustomerInboundACHReturnNSF -->
<g id="edge17" class="edge">
<title>role__CustomerDDA&#45;&gt;rail__CustomerInboundACHReturnNSF</title>
<path fill="none" stroke="#b34a02" stroke-width="1.5" d="M1318.38,-194.49C1337.93,-206.14 1359.5,-219 1359.5,-219 1359.5,-219 1405.5,-245 1405.5,-245 1405.5,-245 1408.05,-245.76 1412.31,-247.03"/>
<polygon fill="#b34a02" stroke="#b34a02" stroke-width="1.5" points="1411.29,-250.38 1421.87,-249.88 1413.29,-243.67 1411.29,-250.38"/>
</g>
<!-- rail__CustomerInboundACHReturnStopPay -->
<g id="node26" class="node">
<title>rail__CustomerInboundACHReturnStopPay</title>
<polygon fill="#f5f5f5" stroke="#666666" points="1579.25,-136 1409.5,-136 1409.5,-112 1579.25,-112 1591.25,-124 1579.25,-136"/>
<polygon fill="none" stroke="#666666" points="1583.25,-140 1405.5,-140 1405.5,-108 1583.25,-108 1595.25,-124 1583.25,-140"/>
<text xml:space="preserve" text-anchor="middle" x="1500.38" y="-120.12" font-family="Helvetica,sans-Serif" font-size="10.00" fill="#666666">CustomerInboundACHReturnStopPay</text>
</g>
<!-- role__CustomerDDA&#45;&gt;rail__CustomerInboundACHReturnStopPay -->
<g id="edge19" class="edge">
<title>role__CustomerDDA&#45;&gt;rail__CustomerInboundACHReturnStopPay</title>
<path fill="none" stroke="#b34a02" stroke-width="1.5" d="M1326.75,-166.34C1346.5,-161.5 1371.43,-155.38 1396.16,-149.32"/>
<polygon fill="#b34a02" stroke="#b34a02" stroke-width="1.5" points="1396.79,-152.77 1405.66,-146.99 1395.12,-145.97 1396.79,-152.77"/>
</g>
<!-- rail__bundle_1 -->
<g id="node41" class="node">
<title>rail__bundle_1</title>
<polygon fill="#e8e8e8" stroke="#666666" points="1553.75,-80.5 1435,-80.5 1435,-39.5 1553.75,-39.5 1565.75,-60 1553.75,-80.5"/>
<polygon fill="none" stroke="#666666" points="1557.75,-84.5 1431,-84.5 1431,-35.5 1557.75,-35.5 1569.75,-60 1557.75,-84.5"/>
<text xml:space="preserve" text-anchor="middle" x="1500.38" y="-73" font-family="Helvetica,sans-Serif" font-size="10.00" fill="#666666">3 rails:</text>
<text xml:space="preserve" text-anchor="middle" x="1500.38" y="-61.75" font-family="Helvetica,sans-Serif" font-size="10.00" fill="#666666">CustomerCashWithdrawal</text>
<text xml:space="preserve" text-anchor="middle" x="1500.38" y="-50.5" font-family="Helvetica,sans-Serif" font-size="10.00" fill="#666666">CustomerOutboundACH</text>
<text xml:space="preserve" text-anchor="middle" x="1500.38" y="-39.25" font-family="Helvetica,sans-Serif" font-size="10.00" fill="#666666">CustomerOutboundWire</text>
</g>
<!-- role__CustomerDDA&#45;&gt;rail__bundle_1 -->
<g id="edge41" class="edge">
<title>role__CustomerDDA&#45;&gt;rail__bundle_1</title>
<path fill="none" stroke="#b34a02" stroke-width="1.9" d="M1314.48,-157.65C1349.35,-134.03 1405.5,-96 1405.5,-96 1405.5,-96 1410.74,-93.99 1418.75,-90.92"/>
<polygon fill="#b34a02" stroke="#b34a02" stroke-width="1.9" points="1419.89,-94.23 1427.97,-87.38 1417.38,-87.7 1419.89,-94.23"/>
</g>
<!-- role__ExternalCardNetwork -->
<g id="node6" class="node">
<title>role__ExternalCardNetwork</title>
<polygon fill="#fff2cc" stroke="#7f6000" points="301.5,-151 197.75,-151 197.75,-115 307.5,-115 307.5,-145 301.5,-151"/>
<polyline fill="none" stroke="#7f6000" points="301.5,-151 301.5,-145"/>
<polyline fill="none" stroke="#7f6000" points="307.5,-145 301.5,-145"/>
<text xml:space="preserve" text-anchor="middle" x="252.62" y="-129.12" font-family="Helvetica,sans-Serif" font-size="10.00" fill="#7f6000">ExternalCardNetwork</text>
</g>
<!-- rail__MerchantCardSale -->
<g id="node27" class="node">
<title>rail__MerchantCardSale</title>
<polygon fill="#f5f5f5" stroke="#666666" points="452.38,-145 367.38,-145 367.38,-121 452.38,-121 464.38,-133 452.38,-145"/>
<polygon fill="none" stroke="#666666" points="456.38,-149 363.38,-149 363.38,-117 456.38,-117 468.38,-133 456.38,-149"/>
<text xml:space="preserve" text-anchor="middle" x="415.88" y="-129.12" font-family="Helvetica,sans-Serif" font-size="10.00" fill="#666666">MerchantCardSale</text>
</g>
<!-- role__ExternalCardNetwork&#45;&gt;rail__MerchantCardSale -->
<g id="edge21" class="edge">
<title>role__ExternalCardNetwork&#45;&gt;rail__MerchantCardSale</title>
<path fill="none" stroke="#b34a02" stroke-width="1.5" d="M307.77,-133C321.71,-133 336.83,-133 351.21,-133"/>
<polygon fill="#b34a02" stroke="#b34a02" stroke-width="1.5" points="350.79,-136.5 360.79,-133 350.79,-129.5 350.79,-136.5"/>
</g>
<!-- role__ExternalCounterparty -->
<g id="node7" class="node">
<title>role__ExternalCounterparty</title>
<polygon fill="#fff2cc" stroke="#7f6000" points="959.88,-252 857.62,-252 857.62,-216 965.88,-216 965.88,-246 959.88,-252"/>
<polyline fill="none" stroke="#7f6000" points="959.88,-252 959.88,-246"/>
<polyline fill="none" stroke="#7f6000" points="965.88,-246 959.88,-246"/>
<text xml:space="preserve" text-anchor="middle" x="911.75" y="-230.12" font-family="Helvetica,sans-Serif" font-size="10.00" fill="#7f6000">ExternalCounterparty</text>
</g>
<!-- rail__CustomerInboundACH -->
<g id="node15" class="node">
<title>rail__CustomerInboundACH</title>
<polygon fill="#f5f5f5" stroke="#666666" points="1162.25,-246 1059.25,-246 1059.25,-222 1162.25,-222 1174.25,-234 1162.25,-246"/>
<polygon fill="none" stroke="#666666" points="1166.25,-250 1055.25,-250 1055.25,-218 1166.25,-218 1178.25,-234 1166.25,-250"/>
<text xml:space="preserve" text-anchor="middle" x="1116.75" y="-230.12" font-family="Helvetica,sans-Serif" font-size="10.00" fill="#666666">CustomerInboundACH</text>
</g>
<!-- role__ExternalCounterparty&#45;&gt;rail__CustomerInboundACH -->
<g id="edge1" class="edge">
<title>role__ExternalCounterparty&#45;&gt;rail__CustomerInboundACH</title>
<path fill="none" stroke="#b34a02" stroke-width="1.5" d="M966.35,-234C989.77,-234 1017.61,-234 1042.87,-234"/>
<polygon fill="#b34a02" stroke="#b34a02" stroke-width="1.5" points="1042.76,-237.5 1052.76,-234 1042.76,-230.5 1042.76,-237.5"/>
</g>
<!-- rail__CustomerFeeMonthlySettlement -->
<g id="node23" class="node">
<title>rail__CustomerFeeMonthlySettlement</title>
<path fill="#f5f5f5" stroke="#666666" d="M1195.25,-522.73C1195.25,-524.53 1160.07,-526 1116.75,-526 1073.43,-526 1038.25,-524.53 1038.25,-522.73 1038.25,-522.73 1038.25,-493.27 1038.25,-493.27 1038.25,-491.47 1073.43,-490 1116.75,-490 1160.07,-490 1195.25,-491.47 1195.25,-493.27 1195.25,-493.27 1195.25,-522.73 1195.25,-522.73"/>
<path fill="none" stroke="#666666" d="M1195.25,-522.73C1195.25,-520.92 1160.07,-519.45 1116.75,-519.45 1073.43,-519.45 1038.25,-520.92 1038.25,-522.73"/>
<path fill="none" stroke="#666666" d="M1199.25,-522.73C1199.25,-528.37 1160.15,-530 1116.75,-530 1073.35,-530 1034.25,-528.37 1034.25,-522.73 1034.25,-522.73 1034.25,-493.27 1034.25,-493.27 1034.25,-487.63 1073.35,-486 1116.75,-486 1160.15,-486 1199.25,-487.63 1199.25,-493.27 1199.25,-493.27 1199.25,-522.73 1199.25,-522.73"/>
<path fill="none" stroke="#666666" d="M1199.25,-522.73C1199.25,-517.08 1160.15,-515.45 1116.75,-515.45 1073.35,-515.45 1034.25,-517.08 1034.25,-522.73"/>
<text xml:space="preserve" text-anchor="middle" x="1116.75" y="-504.12" font-family="Helvetica,sans-Serif" font-size="10.00" fill="#666666">CustomerFeeMonthlySettlement</text>
</g>
<!-- role__ExternalCounterparty&#45;&gt;rail__CustomerFeeMonthlySettlement -->
<g id="edge14" class="edge">
<title>role__ExternalCounterparty&#45;&gt;rail__CustomerFeeMonthlySettlement</title>
<path fill="none" stroke="#b34a02" stroke-width="1.5" d="M921.68,-252.16C949.74,-309.2 1034.25,-481 1034.25,-481 1034.25,-481 1035.04,-481.26 1036.45,-481.73"/>
<polygon fill="#b34a02" stroke="#b34a02" stroke-width="1.5" points="1035.33,-485.04 1045.92,-484.87 1037.53,-478.4 1035.33,-485.04"/>
</g>
<!-- rail__InternalBalanceMaintenance -->
<g id="node24" class="node">
<title>rail__InternalBalanceMaintenance</title>
<polygon fill="#f5f5f5" stroke="#666666" points="1174.25,-418 1047.25,-418 1047.25,-394 1174.25,-394 1186.25,-406 1174.25,-418"/>
<polygon fill="none" stroke="#666666" points="1178.25,-422 1043.25,-422 1043.25,-390 1178.25,-390 1190.25,-406 1178.25,-422"/>
<text xml:space="preserve" text-anchor="middle" x="1116.75" y="-402.12" font-family="Helvetica,sans-Serif" font-size="10.00" fill="#666666">InternalBalanceMaintenance</text>
</g>
<!-- role__ExternalCounterparty&#45;&gt;rail__InternalBalanceMaintenance -->
<g id="edge15" class="edge">
<title>role__ExternalCounterparty&#45;&gt;rail__InternalBalanceMaintenance</title>
<path fill="none" stroke="#b34a02" stroke-width="1.5" d="M928.14,-252.36C960.83,-291.38 1034.25,-379 1034.25,-379 1034.25,-379 1035.04,-379.26 1036.45,-379.73"/>
<polygon fill="#b34a02" stroke="#b34a02" stroke-width="1.5" points="1035.33,-383.04 1045.92,-382.87 1037.53,-376.4 1035.33,-383.04"/>
</g>
<!-- rail__bundle_0 -->
<g id="node40" class="node">
<title>rail__bundle_0</title>
<polygon fill="#e8e8e8" stroke="#666666" points="1162.62,-190.88 1058.88,-190.88 1058.88,-161.12 1162.62,-161.12 1174.62,-176 1162.62,-190.88"/>
<polygon fill="none" stroke="#666666" points="1166.62,-194.88 1054.88,-194.88 1054.88,-157.12 1166.62,-157.12 1178.62,-176 1166.62,-194.88"/>
<text xml:space="preserve" text-anchor="middle" x="1116.75" y="-183.38" font-family="Helvetica,sans-Serif" font-size="10.00" fill="#666666">2 rails:</text>
<text xml:space="preserve" text-anchor="middle" x="1116.75" y="-172.12" font-family="Helvetica,sans-Serif" font-size="10.00" fill="#666666">CustomerCashDeposit</text>
<text xml:space="preserve" text-anchor="middle" x="1116.75" y="-160.88" font-family="Helvetica,sans-Serif" font-size="10.00" fill="#666666">CustomerInboundWire</text>
</g>
<!-- role__ExternalCounterparty&#45;&gt;rail__bundle_0 -->
<g id="edge39" class="edge">
<title>role__ExternalCounterparty&#45;&gt;rail__bundle_0</title>
<path fill="none" stroke="#b34a02" stroke-width="1.6" d="M966.35,-218.69C989.78,-211.99 1017.62,-204.04 1042.88,-196.82"/>
<polygon fill="#b34a02" stroke="#b34a02" stroke-width="1.6" points="1043.68,-200.23 1052.33,-194.12 1041.76,-193.5 1043.68,-200.23"/>
</g>
<!-- role__InternalSuspenseRecon -->
<g id="node8" class="node">
<title>role__InternalSuspenseRecon</title>
<path fill="#dbe9f6" stroke="#1f4e79" d="M1346.5,-369.73C1346.5,-371.53 1319.55,-373 1286.38,-373 1253.2,-373 1226.25,-371.53 1226.25,-369.73 1226.25,-369.73 1226.25,-340.27 1226.25,-340.27 1226.25,-338.47 1253.2,-337 1286.38,-337 1319.55,-337 1346.5,-338.47 1346.5,-340.27 1346.5,-340.27 1346.5,-369.73 1346.5,-369.73"/>
<path fill="none" stroke="#1f4e79" d="M1346.5,-369.73C1346.5,-367.92 1319.55,-366.45 1286.38,-366.45 1253.2,-366.45 1226.25,-367.92 1226.25,-369.73"/>
<text xml:space="preserve" text-anchor="middle" x="1286.38" y="-351.12" font-family="Helvetica,sans-Serif" font-size="10.00" fill="#1f4e79">InternalSuspenseRecon</text>
</g>
<!-- role__InternalSuspenseRecon&#45;&gt;rail__CustomerFeeAccrual -->
<g id="edge7" class="edge">
<title>role__InternalSuspenseRecon&#45;&gt;rail__CustomerFeeAccrual</title>
<path fill="none" stroke="#b34a02" stroke-width="1.5" d="M1346.99,-348.53C1374.09,-345.59 1406.22,-342.11 1433.98,-339.09"/>
<polygon fill="#b34a02" stroke="#b34a02" stroke-width="1.5" points="1434.17,-342.6 1443.73,-338.04 1433.41,-335.64 1434.17,-342.6"/>
</g>
<!-- role__InternalTransferSuspense -->
<g id="node9" class="node">
<title>role__InternalTransferSuspense</title>
<path fill="#dbe9f6" stroke="#1f4e79" d="M316.5,-359.73C316.5,-361.53 287.87,-363 252.62,-363 217.38,-363 188.75,-361.53 188.75,-359.73 188.75,-359.73 188.75,-330.27 188.75,-330.27 188.75,-328.47 217.38,-327 252.62,-327 287.87,-327 316.5,-328.47 316.5,-330.27 316.5,-330.27 316.5,-359.73 316.5,-359.73"/>
<path fill="none" stroke="#1f4e79" d="M316.5,-359.73C316.5,-357.92 287.87,-356.45 252.62,-356.45 217.38,-356.45 188.75,-357.92 188.75,-359.73"/>
<text xml:space="preserve" text-anchor="middle" x="252.62" y="-341.12" font-family="Helvetica,sans-Serif" font-size="10.00" fill="#1f4e79">InternalTransferSuspense</text>
</g>
<!-- role__MerchantDDA -->
<g id="node10" class="node">
<title>role__MerchantDDA</title>
<polygon fill="#e8f0ff" stroke="#1f4e79" points="950.88,-40 947.88,-44 926.88,-44 923.88,-40 872.62,-40 872.62,-4 950.88,-4 950.88,-40"/>
<text xml:space="preserve" text-anchor="middle" x="911.75" y="-18.12" font-family="Helvetica,sans-Serif" font-size="10.00" fill="#1f4e79">MerchantDDA</text>
</g>
<!-- role__MerchantDDAControl -->
<g id="node11" class="node">
<title>role__MerchantDDAControl</title>
<path fill="#dbe9f6" stroke="#1f4e79" d="M1171.62,-36.73C1171.62,-38.53 1147.03,-40 1116.75,-40 1086.47,-40 1061.88,-38.53 1061.88,-36.73 1061.88,-36.73 1061.88,-7.27 1061.88,-7.27 1061.88,-5.47 1086.47,-4 1116.75,-4 1147.03,-4 1171.62,-5.47 1171.62,-7.27 1171.62,-7.27 1171.62,-36.73 1171.62,-36.73"/>
<path fill="none" stroke="#1f4e79" d="M1171.62,-36.73C1171.62,-34.92 1147.03,-33.45 1116.75,-33.45 1086.47,-33.45 1061.88,-34.92 1061.88,-36.73"/>
<text xml:space="preserve" text-anchor="middle" x="1116.75" y="-18.12" font-family="Helvetica,sans-Serif" font-size="10.00" fill="#1f4e79">MerchantDDAControl</text>
</g>
<!-- role__MerchantDDA&#45;&gt;role__MerchantDDAControl -->
<g id="edge44" class="edge">
<title>role__MerchantDDA&#45;&gt;role__MerchantDDAControl</title>
<path fill="none" stroke="#888888" stroke-dasharray="5,2" d="M950.93,-22C978.88,-22 1017.48,-22 1050.31,-22"/>
<polygon fill="none" stroke="#888888" points="1050.14,-25.5 1060.14,-22 1050.14,-18.5 1050.14,-25.5"/>
<text xml:space="preserve" text-anchor="middle" x="1004.75" y="-32.95" font-family="Helvetica,sans-Serif" font-size="9.00" fill="#888888">controls</text>
<text xml:space="preserve" text-anchor="middle" x="1004.75" y="-23.2" font-family="Helvetica,sans-Serif" font-size="9.00" fill="#888888">($ caps)</text>
</g>
<!-- role__MerchantPayableClearing -->
<g id="node12" class="node">
<title>role__MerchantPayableClearing</title>
<path fill="#dbe9f6" stroke="#1f4e79" d="M634.5,-159.73C634.5,-161.53 605.87,-163 570.62,-163 535.38,-163 506.75,-161.53 506.75,-159.73 506.75,-159.73 506.75,-130.27 506.75,-130.27 506.75,-128.47 535.38,-127 570.62,-127 605.87,-127 634.5,-128.47 634.5,-130.27 634.5,-130.27 634.5,-159.73 634.5,-159.73"/>
<path fill="none" stroke="#1f4e79" d="M634.5,-159.73C634.5,-157.92 605.87,-156.45 570.62,-156.45 535.38,-156.45 506.75,-157.92 506.75,-159.73"/>
<text xml:space="preserve" text-anchor="middle" x="570.62" y="-141.12" font-family="Helvetica,sans-Serif" font-size="10.00" fill="#1f4e79">MerchantPayableClearing</text>
</g>
<!-- rail__MerchantPayoutACH -->
<g id="node28" class="node">
<title>rail__MerchantPayoutACH</title>
<polygon fill="#f5f5f5" stroke="#666666" points="783.88,-34 686.88,-34 686.88,-10 783.88,-10 795.88,-22 783.88,-34"/>
<polygon fill="none" stroke="#666666" points="787.88,-38 682.88,-38 682.88,-6 787.88,-6 799.88,-22 787.88,-38"/>
<text xml:space="preserve" text-anchor="middle" x="741.38" y="-18.12" font-family="Helvetica,sans-Serif" font-size="10.00" fill="#666666">MerchantPayoutACH</text>
</g>
<!-- role__MerchantPayableClearing&#45;&gt;rail__MerchantPayoutACH -->
<g id="edge23" class="edge">
<title>role__MerchantPayableClearing&#45;&gt;rail__MerchantPayoutACH</title>
<path fill="none" stroke="#b34a02" stroke-width="1.5" d="M588.53,-126.94C614.56,-99.13 661.5,-49 661.5,-49 661.5,-49 665.24,-47.72 671.09,-45.72"/>
<polygon fill="#b34a02" stroke="#b34a02" stroke-width="1.5" points="672.16,-49.05 680.49,-42.5 669.89,-42.43 672.16,-49.05"/>
</g>
<!-- rail__MerchantPayoutWire -->
<g id="node29" class="node">
<title>rail__MerchantPayoutWire</title>
<polygon fill="#f5f5f5" stroke="#666666" points="783.12,-246 687.62,-246 687.62,-222 783.12,-222 795.12,-234 783.12,-246"/>
<polygon fill="none" stroke="#666666" points="787.12,-250 683.62,-250 683.62,-218 787.12,-218 799.12,-234 787.12,-250"/>
<text xml:space="preserve" text-anchor="middle" x="741.38" y="-230.12" font-family="Helvetica,sans-Serif" font-size="10.00" fill="#666666">MerchantPayoutWire</text>
</g>
<!-- role__MerchantPayableClearing&#45;&gt;rail__MerchantPayoutWire -->
<g id="edge25" class="edge">
<title>role__MerchantPayableClearing&#45;&gt;rail__MerchantPayoutWire</title>
<path fill="none" stroke="#b34a02" stroke-width="1.5" d="M598.59,-163.3C625.06,-181.27 661.5,-206 661.5,-206 661.5,-206 665.61,-207.46 671.94,-209.71"/>
<polygon fill="#b34a02" stroke="#b34a02" stroke-width="1.5" points="670.74,-212.99 681.33,-213.04 673.08,-206.4 670.74,-212.99"/>
</g>
<!-- rail__MerchantPayoutCheck -->
<g id="node30" class="node">
<title>rail__MerchantPayoutCheck</title>
<polygon fill="#f5f5f5" stroke="#666666" points="787.25,-191 683.5,-191 683.5,-167 787.25,-167 799.25,-179 787.25,-191"/>
<polygon fill="none" stroke="#666666" points="791.25,-195 679.5,-195 679.5,-163 791.25,-163 803.25,-179 791.25,-195"/>
<text xml:space="preserve" text-anchor="middle" x="741.38" y="-175.12" font-family="Helvetica,sans-Serif" font-size="10.00" fill="#666666">MerchantPayoutCheck</text>
</g>
<!-- role__MerchantPayableClearing&#45;&gt;rail__MerchantPayoutCheck -->
<g id="edge27" class="edge">
<title>role__MerchantPayableClearing&#45;&gt;rail__MerchantPayoutCheck</title>
<path fill="none" stroke="#b34a02" stroke-width="1.5" d="M634.94,-157.76C645.47,-159.88 656.47,-162.1 667.23,-164.26"/>
<polygon fill="#b34a02" stroke="#b34a02" stroke-width="1.5" points="666.5,-167.69 677,-166.23 667.88,-160.82 666.5,-167.69"/>
</g>
<!-- rail__MerchantDailySettleAggregator -->
<g id="node38" class="node">
<title>rail__MerchantDailySettleAggregator</title>
<polygon fill="#f5f5f5" stroke="#666666" points="805.25,-136 665.5,-136 665.5,-112 805.25,-112 817.25,-124 805.25,-136"/>
<polygon fill="none" stroke="#666666" points="809.25,-140 661.5,-140 661.5,-108 809.25,-108 821.25,-124 809.25,-140"/>
<text xml:space="preserve" text-anchor="middle" x="741.38" y="-120.12" font-family="Helvetica,sans-Serif" font-size="10.00" fill="#666666">MerchantDailySettleAggregator</text>
</g>
<!-- role__MerchantPayableClearing&#45;&gt;rail__MerchantDailySettleAggregator -->
<g id="edge36" class="edge">
<title>role__MerchantPayableClearing&#45;&gt;rail__MerchantDailySettleAggregator</title>
<path fill="none" stroke="#b34a02" stroke-width="1.5" d="M634.94,-137.12C639.6,-136.54 644.34,-135.95 649.12,-135.36"/>
<polygon fill="#b34a02" stroke="#b34a02" stroke-width="1.5" points="649.27,-138.86 658.76,-134.16 648.4,-131.92 649.27,-138.86"/>
</g>
<!-- role__WireSettlementSuspense -->
<g id="node13" class="node">
<title>role__WireSettlementSuspense</title>
<path fill="#dbe9f6" stroke="#1f4e79" d="M975.25,-104.73C975.25,-106.53 946.79,-108 911.75,-108 876.71,-108 848.25,-106.53 848.25,-104.73 848.25,-104.73 848.25,-75.27 848.25,-75.27 848.25,-73.47 876.71,-72 911.75,-72 946.79,-72 975.25,-73.47 975.25,-75.27 975.25,-75.27 975.25,-104.73 975.25,-104.73"/>
<path fill="none" stroke="#1f4e79" d="M975.25,-104.73C975.25,-102.92 946.79,-101.45 911.75,-101.45 876.71,-101.45 848.25,-102.92 848.25,-104.73"/>
<text xml:space="preserve" text-anchor="middle" x="911.75" y="-86.12" font-family="Helvetica,sans-Serif" font-size="10.00" fill="#1f4e79">WireSettlementSuspense</text>
</g>
<!-- role__ZBASubAccount -->
<g id="node14" class="node">
<title>role__ZBASubAccount</title>
<polygon fill="#e8f0ff" stroke="#1f4e79" points="297,-316 294,-320 273,-320 270,-316 208.25,-316 208.25,-280 297,-280 297,-316"/>
<text xml:space="preserve" text-anchor="middle" x="252.62" y="-294.12" font-family="Helvetica,sans-Serif" font-size="10.00" fill="#1f4e79">ZBASubAccount</text>
</g>
<!-- role__ZBASubAccount&#45;&gt;role__ConcentrationMaster -->
<g id="edge45" class="edge">
<title>role__ZBASubAccount&#45;&gt;role__ConcentrationMaster</title>
<path fill="none" stroke="#888888" stroke-dasharray="5,2" d="M297.35,-293.67C323.62,-291.06 352,-288.25 352,-288.25 352,-288.25 479.75,-288.25 479.75,-288.25 479.75,-288.25 491.09,-288.34 505.71,-288.47"/>
<polygon fill="none" stroke="#888888" points="505.28,-291.96 515.31,-288.55 505.34,-284.96 505.28,-291.96"/>
<text xml:space="preserve" text-anchor="middle" x="415.88" y="-289.45" font-family="Helvetica,sans-Serif" font-size="9.00" fill="#888888">controls</text>
</g>
<!-- rail__ZBASweep -->
<g id="node20" class="node">
<title>rail__ZBASweep</title>
<polygon fill="#f5f5f5" stroke="#666666" points="436.62,-338 383.12,-338 383.12,-314 436.62,-314 448.62,-326 436.62,-338"/>
<polygon fill="none" stroke="#666666" points="440.62,-342 379.12,-342 379.12,-310 440.62,-310 452.62,-326 440.62,-342"/>
<text xml:space="preserve" text-anchor="middle" x="415.88" y="-322.12" font-family="Helvetica,sans-Serif" font-size="10.00" fill="#666666">ZBASweep</text>
</g>
<!-- role__ZBASubAccount&#45;&gt;rail__ZBASweep -->
<g id="edge8" class="edge">
<title>role__ZBASubAccount&#45;&gt;rail__ZBASweep</title>
<path fill="none" stroke="#b34a02" stroke-width="1.5" d="M297.26,-305.58C318.82,-309.32 344.89,-313.85 367,-317.69"/>
<polygon fill="#b34a02" stroke="#b34a02" stroke-width="1.5" points="366.14,-321.09 376.59,-319.35 367.34,-314.19 366.14,-321.09"/>
</g>
<!-- rail__CustomerInboundACH&#45;&gt;role__CustomerDDA -->
<g id="edge2" class="edge">
<title>rail__CustomerInboundACH&#45;&gt;role__CustomerDDA</title>
<path fill="none" stroke="#0f5f47" stroke-width="1.5" d="M1178.68,-213.07C1190.48,-209.01 1199.25,-206 1199.25,-206 1199.25,-206 1215.83,-200.22 1234.44,-193.74"/>
<polygon fill="#0f5f47" stroke="#0f5f47" stroke-width="1.5" points="1235.41,-197.11 1243.7,-190.52 1233.1,-190.5 1235.41,-197.11"/>
</g>
<!-- rail__InternalTransferCredit -->
<g id="node17" class="node">
<title>rail__InternalTransferCredit</title>
<polygon fill="#f5f5f5" stroke="#666666" points="1160,-134 1061.5,-134 1061.5,-110 1160,-110 1172,-122 1160,-134"/>
<text xml:space="preserve" text-anchor="middle" x="1116.75" y="-118.12" font-family="Helvetica,sans-Serif" font-size="10.00" fill="#666666">InternalTransferCredit</text>
</g>
<!-- rail__InternalTransferCredit&#45;&gt;role__CustomerDDA -->
<g id="edge4" class="edge">
<title>rail__InternalTransferCredit&#45;&gt;role__CustomerDDA</title>
<path fill="none" stroke="#0f5f47" stroke-width="1.5" d="M1172.11,-138.01C1187.06,-142.41 1199.25,-146 1199.25,-146 1199.25,-146 1215.83,-151.78 1234.44,-158.26"/>
<polygon fill="#0f5f47" stroke="#0f5f47" stroke-width="1.5" points="1233.1,-161.5 1243.7,-161.48 1235.41,-154.89 1233.1,-161.5"/>
</g>
<!-- rail__InternalTransferSuspenseClose -->
<g id="node18" class="node">
<title>rail__InternalTransferSuspenseClose</title>
<polygon fill="#f5f5f5" stroke="#666666" points="141.25,-357 0,-357 0,-333 141.25,-333 153.25,-345 141.25,-357"/>
<text xml:space="preserve" text-anchor="middle" x="76.62" y="-341.12" font-family="Helvetica,sans-Serif" font-size="10.00" fill="#666666">InternalTransferSuspenseClose</text>
</g>
<!-- rail__InternalTransferSuspenseClose&#45;&gt;role__InternalTransferSuspense -->
<g id="edge5" class="edge">
<title>rail__InternalTransferSuspenseClose&#45;&gt;role__InternalTransferSuspense</title>
<path fill="none" stroke="#4a4682" stroke-width="1.5" d="M165.73,-345C165.85,-345 165.97,-345 166.09,-345"/>
<polygon fill="#4a4682" stroke="#4a4682" stroke-width="1.5" points="165.96,-341.5 155.96,-345 165.96,-348.5 165.96,-341.5"/>
<polygon fill="#4a4682" stroke="#4a4682" stroke-width="1.5" points="176.21,-348.5 186.21,-345 176.21,-341.5 176.21,-348.5"/>
<polygon fill="none" stroke="#4a4682" stroke-width="1.5" points="163.19,-348.5 173.19,-345 163.19,-341.5 163.19,-348.5"/>
</g>
<!-- rail__ZBASweep&#45;&gt;role__ConcentrationMaster -->
<g id="edge9" class="edge">
<title>rail__ZBASweep&#45;&gt;role__ConcentrationMaster</title>
<path fill="none" stroke="#0f5f47" stroke-width="1.5" d="M453.07,-317.23C468.63,-313.46 487.3,-308.94 505.09,-304.63"/>
<polygon fill="#0f5f47" stroke="#0f5f47" stroke-width="1.5" points="505.81,-308.06 514.7,-302.3 504.16,-301.26 505.81,-308.06"/>
</g>
<!-- rail__ConcentrationToFRBSweep&#45;&gt;role__ExternalCounterparty -->
<g id="edge11" class="edge">
<title>rail__ConcentrationToFRBSweep&#45;&gt;role__ExternalCounterparty</title>
<path fill="none" stroke="#0f5f47" stroke-width="1.5" d="M810.86,-266.63C822.35,-262.88 834.24,-258.99 845.64,-255.27"/>
<polygon fill="#0f5f47" stroke="#0f5f47" stroke-width="1.5" points="846.72,-258.6 855.14,-252.16 844.55,-251.94 846.72,-258.6"/>
</g>
<!-- rail__ACHOriginationDailySweep&#45;&gt;role__CashDueFRB -->
<g id="edge13" class="edge">
<title>rail__ACHOriginationDailySweep&#45;&gt;role__CashDueFRB</title>
<path fill="none" stroke="#0f5f47" stroke-width="1.5" d="M325.29,-35C338.66,-35 352.37,-35 364.91,-35"/>
<polygon fill="#0f5f47" stroke="#0f5f47" stroke-width="1.5" points="364.74,-38.5 374.74,-35 364.74,-31.5 364.74,-38.5"/>
</g>
<!-- rail__InternalBalanceMaintenance&#45;&gt;role__InternalSuspenseRecon -->
<g id="edge16" class="edge">
<title>rail__InternalBalanceMaintenance&#45;&gt;role__InternalSuspenseRecon</title>
<path fill="none" stroke="#0f5f47" stroke-width="1.5" d="M1190.3,-383.93C1199.34,-381.18 1208.56,-378.37 1217.53,-375.64"/>
<polygon fill="#0f5f47" stroke="#0f5f47" stroke-width="1.5" points="1218.42,-379.03 1226.97,-372.77 1216.38,-372.33 1218.42,-379.03"/>
</g>
<!-- rail__CustomerInboundACHReturnNSF&#45;&gt;role__ExternalCounterparty -->
<g id="edge18" class="edge">
<title>rail__CustomerInboundACHReturnNSF&#45;&gt;role__ExternalCounterparty</title>
<path fill="none" stroke="#0f5f47" stroke-width="1.5" d="M1413.79,-270.79C1279.46,-267.33 1034.25,-261 1034.25,-261 1034.25,-261 1006.78,-254.9 977.96,-248.49"/>
<polygon fill="#0f5f47" stroke="#0f5f47" stroke-width="1.5" points="978.78,-245.09 968.26,-246.34 977.26,-251.92 978.78,-245.09"/>
</g>
<!-- rail__CustomerInboundACHReturnStopPay&#45;&gt;role__ExternalCounterparty -->
<g id="edge20" class="edge">
<title>rail__CustomerInboundACHReturnStopPay&#45;&gt;role__ExternalCounterparty</title>
<path fill="none" stroke="#0f5f47" stroke-width="1.5" d="M1405.24,-115.84C1317.22,-108.22 1199.25,-98 1199.25,-98 1199.25,-98 1034.25,-98 1034.25,-98 1034.25,-98 972.58,-167.03 937.12,-206.73"/>
<polygon fill="#0f5f47" stroke="#0f5f47" stroke-width="1.5" points="934.7,-204.18 930.65,-213.97 939.92,-208.84 934.7,-204.18"/>
</g>
<!-- rail__MerchantCardSale&#45;&gt;role__MerchantPayableClearing -->
<g id="edge22" class="edge">
<title>rail__MerchantCardSale&#45;&gt;role__MerchantPayableClearing</title>
<path fill="none" stroke="#0f5f47" stroke-width="1.5" d="M468.59,-137.06C476.83,-137.71 485.49,-138.39 494.14,-139.07"/>
<polygon fill="#0f5f47" stroke="#0f5f47" stroke-width="1.5" points="493.8,-142.55 504.05,-139.85 494.35,-135.58 493.8,-142.55"/>
</g>
<!-- rail__MerchantPayoutACH&#45;&gt;role__MerchantDDA -->
<g id="edge24" class="edge">
<title>rail__MerchantPayoutACH&#45;&gt;role__MerchantDDA</title>
<path fill="none" stroke="#0f5f47" stroke-width="1.5" d="M800.32,-22C819.74,-22 841.22,-22 860.04,-22"/>
<polygon fill="#0f5f47" stroke="#0f5f47" stroke-width="1.5" points="860.01,-25.5 870.01,-22 860.01,-18.5 860.01,-25.5"/>
</g>
<!-- rail__MerchantPayoutWire&#45;&gt;role__ExternalCounterparty -->
<g id="edge26" class="edge">
<title>rail__MerchantPayoutWire&#45;&gt;role__ExternalCounterparty</title>
<path fill="none" stroke="#0f5f47" stroke-width="1.5" d="M799.38,-234C814.13,-234 830.14,-234 845.29,-234"/>
<polygon fill="#0f5f47" stroke="#0f5f47" stroke-width="1.5" points="844.94,-237.5 854.94,-234 844.94,-230.5 844.94,-237.5"/>
</g>
<!-- rail__MerchantPayoutCheck&#45;&gt;role__ExternalCounterparty -->
<g id="edge28" class="edge">
<title>rail__MerchantPayoutCheck&#45;&gt;role__ExternalCounterparty</title>
<path fill="none" stroke="#0f5f47" stroke-width="1.5" d="M803.64,-199.01C817.38,-203.5 831.99,-208.27 845.87,-212.81"/>
<polygon fill="#0f5f47" stroke="#0f5f47" stroke-width="1.5" points="844.57,-216.06 855.16,-215.84 846.74,-209.41 844.57,-216.06"/>
</g>
<!-- rail__ExternalCardSettlement -->
<g id="node31" class="node">
<title>rail__ExternalCardSettlement</title>
<path fill="#f5f5f5" stroke="#666666" d="M136.75,-147.73C136.75,-149.53 109.8,-151 76.62,-151 43.45,-151 16.5,-149.53 16.5,-147.73 16.5,-147.73 16.5,-118.27 16.5,-118.27 16.5,-116.47 43.45,-115 76.62,-115 109.8,-115 136.75,-116.47 136.75,-118.27 136.75,-118.27 136.75,-147.73 136.75,-147.73"/>
<path fill="none" stroke="#666666" d="M136.75,-147.73C136.75,-145.92 109.8,-144.45 76.62,-144.45 43.45,-144.45 16.5,-145.92 16.5,-147.73"/>
<path fill="none" stroke="#666666" d="M140.75,-147.73C140.75,-153.32 109.91,-155 76.62,-155 43.34,-155 12.5,-153.32 12.5,-147.73 12.5,-147.73 12.5,-118.27 12.5,-118.27 12.5,-112.68 43.34,-111 76.62,-111 109.91,-111 140.75,-112.68 140.75,-118.27 140.75,-118.27 140.75,-147.73 140.75,-147.73"/>
<path fill="none" stroke="#666666" d="M140.75,-147.73C140.75,-142.13 109.91,-140.45 76.62,-140.45 43.34,-140.45 12.5,-142.13 12.5,-147.73"/>
<text xml:space="preserve" text-anchor="middle" x="76.62" y="-129.12" font-family="Helvetica,sans-Serif" font-size="10.00" fill="#666666">ExternalCardSettlement</text>
</g>
<!-- rail__ExternalCardSettlement&#45;&gt;role__ExternalCardNetwork -->
<g id="edge29" class="edge">
<title>rail__ExternalCardSettlement&#45;&gt;role__ExternalCardNetwork</title>
<path fill="none" stroke="#0f5f47" stroke-width="1.5" d="M140.94,-133C155.36,-133 170.72,-133 185.27,-133"/>
<polygon fill="#0f5f47" stroke="#0f5f47" stroke-width="1.5" points="184.99,-136.5 194.99,-133 184.99,-129.5 184.99,-136.5"/>
</g>
<!-- rail__SettlementAutoSettle -->
<g id="node32" class="node">
<title>rail__SettlementAutoSettle</title>
<polygon fill="#f5f5f5" stroke="#666666" points="458.38,-94 361.38,-94 361.38,-70 458.38,-70 470.38,-82 458.38,-94"/>
<text xml:space="preserve" text-anchor="middle" x="415.88" y="-78.12" font-family="Helvetica,sans-Serif" font-size="10.00" fill="#666666">SettlementAutoSettle</text>
</g>
<!-- rail__SettlementAutoSettle&#45;&gt;role__MerchantPayableClearing -->
<g id="edge30" class="edge">
<title>rail__SettlementAutoSettle&#45;&gt;role__MerchantPayableClearing</title>
<path fill="none" stroke="#4a4682" stroke-width="1.5" d="M478.84,-104.67C479.43,-104.88 479.75,-105 479.75,-105 479.75,-105 491.08,-110.04 505.69,-116.55"/>
<polygon fill="#4a4682" stroke="#4a4682" stroke-width="1.5" points="480.05,-101.38 469.46,-101.24 477.65,-107.96 480.05,-101.38"/>
<polygon fill="#4a4682" stroke="#4a4682" stroke-width="1.5" points="515.47,-124.73 526.03,-125.6 518.32,-118.34 515.47,-124.73"/>
<polygon fill="none" stroke="#4a4682" stroke-width="1.5" points="503.58,-119.44 514.14,-120.3 506.43,-113.04 503.58,-119.44"/>
</g>
<!-- rail__SettlementStandardSettle -->
<g id="node33" class="node">
<title>rail__SettlementStandardSettle</title>
<polygon fill="#f5f5f5" stroke="#666666" points="467.75,-243 352,-243 352,-219 467.75,-219 479.75,-231 467.75,-243"/>
<text xml:space="preserve" text-anchor="middle" x="415.88" y="-227.12" font-family="Helvetica,sans-Serif" font-size="10.00" fill="#666666">SettlementStandardSettle</text>
</g>
<!-- rail__SettlementStandardSettle&#45;&gt;role__MerchantPayableClearing -->
<g id="edge31" class="edge">
<title>rail__SettlementStandardSettle&#45;&gt;role__MerchantPayableClearing</title>
<path fill="none" stroke="#4a4682" stroke-width="1.5" d="M476.55,-208.22C478.57,-207.45 479.75,-207 479.75,-207 479.75,-207 501.15,-192.24 523.07,-177.12"/>
<polygon fill="#4a4682" stroke="#4a4682" stroke-width="1.5" points="475.38,-204.92 467.29,-211.76 477.88,-211.46 475.38,-204.92"/>
<polygon fill="#4a4682" stroke="#4a4682" stroke-width="1.5" points="535.03,-173.12 541.28,-164.56 531.06,-167.35 535.03,-173.12"/>
<polygon fill="none" stroke="#4a4682" stroke-width="1.5" points="524.32,-180.51 530.56,-171.95 520.34,-174.75 524.32,-180.51"/>
</g>
<!-- rail__SettlementSlowSettle -->
<g id="node34" class="node">
<title>rail__SettlementSlowSettle</title>
<polygon fill="#f5f5f5" stroke="#666666" points="459.12,-196 360.62,-196 360.62,-172 459.12,-172 471.12,-184 459.12,-196"/>
<text xml:space="preserve" text-anchor="middle" x="415.88" y="-180.12" font-family="Helvetica,sans-Serif" font-size="10.00" fill="#666666">SettlementSlowSettle</text>
</g>
<!-- rail__SettlementSlowSettle&#45;&gt;role__MerchantPayableClearing -->
<g id="edge32" class="edge">
<title>rail__SettlementSlowSettle&#45;&gt;role__MerchantPayableClearing</title>
<path fill="none" stroke="#4a4682" stroke-width="1.5" d="M483.44,-167C483.56,-166.97 483.68,-166.94 483.8,-166.91"/>
<polygon fill="#4a4682" stroke="#4a4682" stroke-width="1.5" points="482.61,-163.6 473.79,-169.47 484.34,-170.39 482.61,-163.6"/>
<polygon fill="#4a4682" stroke="#4a4682" stroke-width="1.5" points="495.43,-167.56 504.25,-161.69 493.7,-160.77 495.43,-167.56"/>
<polygon fill="none" stroke="#4a4682" stroke-width="1.5" points="482.81,-170.78 491.64,-164.91 481.08,-163.99 482.81,-170.78"/>
</g>
<!-- rail__NoFraudReview -->
<g id="node35" class="node">
<title>rail__NoFraudReview</title>
<polygon fill="#f5f5f5" stroke="#666666" points="1148,-367 1073.5,-367 1073.5,-343 1148,-343 1160,-355 1148,-367"/>
<text xml:space="preserve" text-anchor="middle" x="1116.75" y="-351.12" font-family="Helvetica,sans-Serif" font-size="10.00" fill="#666666">NoFraudReview</text>
</g>
<!-- rail__NoFraudReview&#45;&gt;role__InternalSuspenseRecon -->
<g id="edge33" class="edge">
<title>rail__NoFraudReview&#45;&gt;role__InternalSuspenseRecon</title>
<path fill="none" stroke="#4a4682" stroke-width="1.5" d="M1172.55,-355C1181.9,-355 1191.8,-355 1201.69,-355"/>
<polygon fill="#4a4682" stroke="#4a4682" stroke-width="1.5" points="1172.75,-351.5 1162.75,-355 1172.75,-358.5 1172.75,-351.5"/>
<polygon fill="#4a4682" stroke="#4a4682" stroke-width="1.5" points="1213.69,-358.5 1223.69,-355 1213.69,-351.5 1213.69,-358.5"/>
<polygon fill="none" stroke="#4a4682" stroke-width="1.5" points="1200.67,-358.5 1210.67,-355 1200.67,-351.5 1200.67,-358.5"/>
</g>
<!-- rail__StandardFraudReview -->
<g id="node36" class="node">
<title>rail__StandardFraudReview</title>
<polygon fill="#f5f5f5" stroke="#666666" points="1161.12,-320 1060.38,-320 1060.38,-296 1161.12,-296 1173.12,-308 1161.12,-320"/>
<text xml:space="preserve" text-anchor="middle" x="1116.75" y="-304.12" font-family="Helvetica,sans-Serif" font-size="10.00" fill="#666666">StandardFraudReview</text>
</g>
<!-- rail__StandardFraudReview&#45;&gt;role__InternalSuspenseRecon -->
<g id="edge34" class="edge">
<title>rail__StandardFraudReview&#45;&gt;role__InternalSuspenseRecon</title>
<path fill="none" stroke="#4a4682" stroke-width="1.5" d="M1185.18,-326.91C1190.85,-328.5 1196.62,-330.11 1202.38,-331.73"/>
<polygon fill="#4a4682" stroke="#4a4682" stroke-width="1.5" points="1186.33,-323.59 1175.75,-324.26 1184.44,-330.33 1186.33,-323.59"/>
<polygon fill="#4a4682" stroke="#4a4682" stroke-width="1.5" points="1213.02,-338.35 1223.59,-337.68 1214.91,-331.61 1213.02,-338.35"/>
<polygon fill="none" stroke="#4a4682" stroke-width="1.5" points="1200.48,-334.83 1211.05,-334.16 1202.37,-328.09 1200.48,-334.83"/>
</g>
<!-- rail__EnhancedFraudReview -->
<g id="node37" class="node">
<title>rail__EnhancedFraudReview</title>
<polygon fill="#f5f5f5" stroke="#666666" points="1163.38,-469 1058.12,-469 1058.12,-445 1163.38,-445 1175.38,-457 1163.38,-469"/>
<text xml:space="preserve" text-anchor="middle" x="1116.75" y="-453.12" font-family="Helvetica,sans-Serif" font-size="10.00" fill="#666666">EnhancedFraudReview</text>
</g>
<!-- rail__EnhancedFraudReview&#45;&gt;role__InternalSuspenseRecon -->
<g id="edge35" class="edge">
<title>rail__EnhancedFraudReview&#45;&gt;role__InternalSuspenseRecon</title>
<path fill="none" stroke="#4a4682" stroke-width="1.5" d="M1187.03,-437.45C1194.38,-435.37 1199.25,-434 1199.25,-434 1199.25,-434 1224.34,-410.98 1247.44,-389.79"/>
<polygon fill="#4a4682" stroke="#4a4682" stroke-width="1.5" points="1186.54,-433.95 1177.86,-440.04 1188.44,-440.69 1186.54,-433.95"/>
<polygon fill="#4a4682" stroke="#4a4682" stroke-width="1.5" points="1258.72,-384.2 1263.73,-374.86 1253.99,-379.04 1258.72,-384.2"/>
<polygon fill="none" stroke="#4a4682" stroke-width="1.5" points="1249.13,-393 1254.13,-383.66 1244.4,-387.84 1249.13,-393"/>
</g>
<!-- rail__MerchantDailySettleAggregator&#45;&gt;role__WireSettlementSuspense -->
<g id="edge37" class="edge">
<title>rail__MerchantDailySettleAggregator&#45;&gt;role__WireSettlementSuspense</title>
<path fill="none" stroke="#0f5f47" stroke-width="1.5" d="M821.63,-108C826.48,-107.02 831.36,-106.03 836.19,-105.06"/>
<polygon fill="#0f5f47" stroke="#0f5f47" stroke-width="1.5" points="836.73,-108.52 845.84,-103.11 835.35,-101.66 836.73,-108.52"/>
</g>
<!-- rail__MerchantWeeklyBatchClose -->
<g id="node39" class="node">
<title>rail__MerchantWeeklyBatchClose</title>
<polygon fill="#f5f5f5" stroke="#666666" points="799.25,-85 671.5,-85 671.5,-61 799.25,-61 811.25,-73 799.25,-85"/>
<text xml:space="preserve" text-anchor="middle" x="741.38" y="-69.12" font-family="Helvetica,sans-Serif" font-size="10.00" fill="#666666">MerchantWeeklyBatchClose</text>
</g>
<!-- rail__MerchantWeeklyBatchClose&#45;&gt;role__WireSettlementSuspense -->
<g id="edge38" class="edge">
<title>rail__MerchantWeeklyBatchClose&#45;&gt;role__WireSettlementSuspense</title>
<path fill="none" stroke="#0f5f47" stroke-width="1.5" d="M811.35,-79.96C819.37,-80.77 827.58,-81.6 835.68,-82.42"/>
<polygon fill="#0f5f47" stroke="#0f5f47" stroke-width="1.5" points="835.28,-85.9 845.58,-83.42 835.98,-78.93 835.28,-85.9"/>
</g>
<!-- rail__bundle_0&#45;&gt;role__CustomerDDA -->
<g id="edge40" class="edge">
<title>rail__bundle_0&#45;&gt;role__CustomerDDA</title>
<path fill="none" stroke="#0f5f47" stroke-width="1.6" d="M1178.74,-176C1196.74,-176 1216.27,-176 1233.63,-176"/>
<polygon fill="#0f5f47" stroke="#0f5f47" stroke-width="1.6" points="1233.42,-179.5 1243.42,-176 1233.42,-172.5 1233.42,-179.5"/>
</g>
<!-- rail__bundle_1&#45;&gt;role__ExternalCounterparty -->
<g id="edge42" class="edge">
<title>rail__bundle_1&#45;&gt;role__ExternalCounterparty</title>
<path fill="none" stroke="#0f5f47" stroke-width="1.9" d="M1430.74,-65.31C1301.36,-75.33 1034.25,-96 1034.25,-96 1034.25,-96 988.25,-111 988.25,-111 988.25,-111 952.82,-168.71 930.51,-205.07"/>
<polygon fill="#0f5f47" stroke="#0f5f47" stroke-width="1.9" points="927.81,-202.78 925.56,-213.13 933.77,-206.44 927.81,-202.78"/>
</g>
</g>
</svg>
